mtllib material.mtl
o Default
v -0.3132525086402893 0.6875 1.0920449495315552
v -0.6447088122367859 0.6875 1.4235012531280518
v -0.887776792049408 0.6875 0.5175206661224365
v -1.2192330360412598 0.6875 0.8489769101142883
v -0.887776792049408 0.71875 0.5175206661224365
v -1.2192330360412598 0.71875 0.8489769101142883
v -0.887776792049408 0.703125 0.5175206661224365
v -0.3132525086402893 0.703125 1.0920449495315552
v -0.3132525086402893 0.71875 1.0920449495315552
v -0.6447088122367859 0.71875 1.4235012531280518
v -0.9430195093154907 0.734375 0.5948604345321655
v -0.8988252878189087 0.703125 0.6390545964241028
v -0.8988252878189087 0.734375 0.6390545964241028
v -0.9430195093154907 0.703125 0.5948604345321655
v -0.8546311259269714 0.734375 0.5948604345321655
v -0.8546311259269714 0.703125 0.5948604345321655
v -0.8988252878189087 0.734375 0.5506662726402283
v -0.8988252878189087 0.703125 0.5506662726402283
v -0.8325340747833252 0.734375 0.6169575452804565
v -0.8767282366752625 0.703125 0.6611517071723938
v -0.8767282366752625 0.734375 0.6611517071723938
v -0.8325340747833252 0.703125 0.6169575452804565
v -0.6778544187545776 0.734375 0.7716371417045593
v -0.7220486402511597 0.703125 0.8158313035964966
v -0.7220486402511597 0.734375 0.8158313035964966
v -0.6778544187545776 0.703125 0.7716371417045593
v -0.5894660949707031 0.734375 0.9484138488769531
v -0.5894660949707031 0.703125 0.9484138488769531
v -0.5452719330787659 0.734375 0.9042196273803711
v -0.5452719330787659 0.703125 0.9042196273803711
v -0.5231748223304749 0.734375 0.9263167381286621
v -0.5673689842224121 0.703125 0.9705109000205994
v -0.5673689842224121 0.734375 0.9705109000205994
v -0.5231748223304749 0.703125 0.9263167381286621
v -0.43478649854660034 0.734375 1.1030933856964111
v -0.43478649854660034 0.703125 1.1030933856964111
v -0.3905922770500183 0.734375 1.0588992834091187
v -0.3905922770500183 0.703125 1.0588992834091187
v -0.6999515295028687 0.734375 0.7495400309562683
v -0.6999515295028687 0.703125 0.7495400309562683
v -0.7441456913948059 0.703125 0.7937341928482056
v -0.7441456913948059 0.734375 0.7937341928482056
v -0.7883398532867432 0.734375 1.1472876071929932
v -0.7662428021430969 0.703125 1.1693847179412842
v -0.7662428021430969 0.734375 1.1693847179412842
v -0.7883398532867432 0.703125 1.1472876071929932
v -1.0093107223510742 0.734375 0.9263167381286621
v -0.9872136116027832 0.703125 0.9484138488769531
v -0.9872136116027832 0.734375 0.9484138488769531
v -1.0093107223510742 0.703125 0.9263167381286621
v -0.9651166200637817 0.734375 0.6169575452804565
v -0.4126893877983093 0.703125 1.1693847179412842
v -0.4126893877983093 0.734375 1.1693847179412842
v -0.9651166200637817 0.703125 0.6169575452804565
v -1.0093107223510742 0.734375 0.6611517071723938
v -1.0093107223510742 0.703125 0.6611517071723938
v -0.4568835496902466 0.734375 1.2135788202285767
v -0.4568835496902466 0.703125 1.2135788202285767
v -0.8104369640350342 0.734375 1.2135788202285767
v -0.6336602568626404 0.703125 1.3903555870056152
v -0.6336602568626404 0.734375 1.3903555870056152
v -0.8104369640350342 0.703125 1.2135788202285767
v -1.1860874891281128 0.734375 0.8379284143447876
v -1.0535049438476562 0.703125 0.9705109000205994
v -1.0535049438476562 0.734375 0.9705109000205994
v -1.1860874891281128 0.703125 0.8379284143447876
v -0.8325340747833252 0.734375 1.1914818286895752
v -0.8325340747833252 0.703125 1.1914818286895752
v -1.0314078330993652 0.734375 0.9926080107688904
v -1.0314078330993652 0.703125 0.9926080107688904
v -0.34639811515808105 0.734375 1.1030933856964111
vt 0.75390625 0.80859375
vt 0.75390625 0.8046875
vt 0.75 0.80859375
vt 0.75 0.8046875
vt 0.71484375 0.8125
vt 0.71875 0.80859375
vt 0.71875 0.8125
vt 0.71484375 0.80859375
vt 0.71875 0.8046875
vt 0.71484375 0.8046875
vt 0.7265625 0.80859375
vt 0.73046875 0.8046875
vt 0.73046875 0.80859375
vt 0.7265625 0.8046875
vt 0.703125 0.80859375
vt 0.70703125 0.8046875
vt 0.70703125 0.80859375
vt 0.703125 0.8046875
vt 0.6875 0.9375
vt 0.79296875 0.87890625
vt 0.79296875 0.9375
vt 0.6875 0.87890625
vt 0.6875 0.875
vt 0.78515625 0.82421875
vt 0.78515625 0.875
vt 0.6875 0.82421875
vn 0 -1 0
vn -0.70710678 0 -0.70710678
vn 0.70710678 0 -0.70710678
vn 0.70710678 0 0.70710678
vn -0.70710685 0 0.70710671
vn -0.7071063 0 0.70710726
vn -0.7071063 0 -0.70710726
vn 0.70710726 0 0.7071063
vn 0.70710583 0 0.70710773
vn 0.70710662 0 -0.70710694
vn -0.70710678 0 0.70710678
vn -0.70710662 0 0.70710694
vn -0.70710773 0 0.70710583
vn -0.70710674 0 0.70710682
vn -0.70710726 0 -0.7071063
vn 0.7071063 0 0.70710726
vn -0.7071069 0 0.70710666
vn -0.70710666 0 -0.7071069
vn 0.7071069 0 0.70710666
vn -0.70710689 0 0.70710668
vn 0 1 0
g keyboard
usemtl officeCubical
f 1/1/1 2/2/1 3/3/1
f 2/2/1 4/4/1 3/3/1
f 3/1/2 4/2/2 5/3/2
f 4/2/2 6/4/2 5/3/2
f 7/3/3 1/2/3 3/1/3
f 7/3/3 8/4/3 1/2/3
f 9/3/4 2/2/4 1/1/4
f 9/3/4 10/4/4 2/2/4
f 1/1/3 3/2/3 9/3/3
f 3/2/3 5/4/3 9/3/3
f 10/3/5 4/2/5 2/1/5
f 10/3/5 6/4/5 4/2/5
f 11/5/6 12/6/6 13/7/6
f 11/5/6 14/8/6 12/6/6
f 15/7/3 16/6/3 17/5/3
f 16/6/3 18/8/3 17/5/3
f 17/5/7 14/6/7 11/7/7
f 17/5/7 18/8/7 14/6/7
f 13/7/4 12/6/4 15/5/4
f 12/6/4 16/8/4 15/5/4
f 19/5/2 20/6/2 21/7/2
f 19/5/2 22/8/2 20/6/2
f 23/5/7 24/6/7 25/7/7
f 23/5/7 26/8/7 24/6/7
f 27/7/8 28/6/8 29/5/8
f 28/6/8 30/8/8 29/5/8
f 31/5/2 32/6/2 33/7/2
f 31/5/2 34/8/2 32/6/2
f 35/7/9 36/6/9 37/5/9
f 36/6/9 38/8/9 37/5/9
f 39/7/10 40/6/10 19/5/10
f 40/6/10 22/8/10 19/5/10
f 37/7/3 38/6/3 31/5/3
f 38/6/3 34/8/3 31/5/3
f 29/7/3 30/6/3 23/5/3
f 30/6/3 26/8/3 23/5/3
f 33/5/11 36/6/11 35/7/11
f 33/5/11 32/8/11 36/6/11
f 25/5/11 28/6/11 27/7/11
f 25/5/11 24/8/11 28/6/11
f 21/5/12 41/6/12 42/7/12
f 21/5/12 20/8/12 41/6/12
f 43/8/13 44/9/13 45/6/13
f 43/8/13 46/10/13 44/9/13
f 47/8/11 48/9/11 49/6/11
f 47/8/11 50/10/11 48/9/11
f 51/11/14 52/12/14 53/13/14
f 51/11/14 54/14/14 52/12/14
f 51/13/15 54/12/15 55/11/15
f 54/12/15 56/14/15 55/11/15
f 57/11/16 52/12/16 53/13/16
f 57/11/16 58/14/16 52/12/16
f 59/15/17 60/16/17 61/17/17
f 59/15/17 62/18/17 60/16/17
f 63/15/12 64/16/12 65/17/12
f 63/15/12 66/18/12 64/16/12
f 55/17/18 56/16/18 63/15/18
f 56/16/18 66/18/18 63/15/18
f 65/15/16 50/16/16 47/17/16
f 65/15/16 64/18/16 50/16/16
f 61/15/19 58/16/19 57/17/19
f 61/15/19 60/18/19 58/16/19
f 45/17/7 44/16/7 59/15/7
f 44/16/7 62/18/7 59/15/7
f 67/15/4 46/16/4 43/17/4
f 67/15/4 68/18/4 46/16/4
f 49/17/7 48/16/7 69/15/7
f 48/16/7 70/18/7 69/15/7
f 69/15/20 68/16/20 67/17/20
f 69/15/20 70/18/20 68/16/20
f 5/19/21 10/20/21 9/21/21
f 5/19/21 6/22/21 10/20/21
f 17/23/21 61/24/21 71/25/21
f 17/23/21 63/26/21 61/24/21
f 23/5/7 24/6/7 25/7/7
f 23/5/7 26/8/7 24/6/7
