mtllib SlackersPrinter.mtl
o Default
v 0 0 1
v 1 1 1
v 0 1 1
v 1 0 1
v -1 0 1
v -1 1 1
v 0 2 1
v -1 2 1
v 1 2 1
v -1 0 0
v -1 1 0
v -1 0 -1
v -1 1 -1
v -1 2 0
v -1 2 -1
v 0 0 -1
v 0 1 -1
v 1 0 -1
v 1 1 -1
v 0 2 -1
v 1 2 -1
v 1 1 0
v 1 0 0
v 1 2 0
v 0 2 0
v 1 2 -0.5
v 1 3 -1
v 1 3 -0.5
v 0 3 -1
v -1 3 -1
v -1 3 0
v -1 3 1
v 0 3 1
v 0 3 0
v 0 3 -0.5
v 0 2 -0.5
v 1 3 0
v 0 3 0.75
v 1 3 0.75
v 1 3.125 -1
v 1 3.125 0
v 1 3.125 0.75
v 0 0 0
v 0 3.375 0.75
v 0 3.375 0
v 0 3.375 -1
v 0 3.75 0
v 0 3.75 1
v -1 3.75 1
v -1 3.75 0
v -1 3.375 -1
v -0.875 3 0
v -0.875 3.375 -1
v -1 3.5 0
v -1 3.5 -1
v -0.875 3.5 -1
v -0.875 3.5 0
v -0.875 3 -1
v 1 2.5 -0.5
v 1 2.5 0
v 0 2.5 0
v 0 2.625 0
v 0 2.5 -0.5
v 1 2.625 0
v 0 2.625 0.5
v 1 2.625 0.5
v -0.5 1.5 -1
v 0.5 2.25 -1.75
v -0.5 2.228553295135498 -1.7285534143447876
v 0.5 1.5 -1
v -0.5 1.75 -1
v -0.5 1.75 -1.25
v 0.5 1.75 -1
v 0.5 1.75 -1.25
vt 0.125 0.5
vt 0.25 0.625
vt 0.125 0.625
vt 0.25 0.5
vt 0 0.5
vt 0 0.625
vt 0.125 0.75
vt 0 0.75
vt 0.25 0.75
vt 0.375 0.5
vt 0.5 0.625
vt 0.375 0.625
vt 0.5 0.5
vt 0.375 0.75
vt 0.5 0.75
vt 0.375 0.875
vt 0.25 0.875
vt 0.5 0.875
vt 0.125 0.875
vt 0 0.875
vt 0.25 1
vt 0.125 1
vt 0 1
vt 0.75 0.125
vt 0.625 0.25
vt 0.625 0.125
vt 0.75 0.25
vt 0.5625 0.875
vt 0.625 1
vt 0.5625 1
vt 0.625 0.875
vt 0 0.125
vt 0.125 0.25
vt 0 0.25
vt 0.125 0.125
vt 0.25 0.25
vt 0.25 0.125
vt 0 0.375
vt 0.125 0.375
vt 0.875 0.25
vt 0.875 0.125
vt 0.5 0.125
vt 0.5625 0.25
vt 0.5 0.25
vt 0.5625 0.125
vt 0.25 0.0625
vt 0.375 0.1875
vt 0.25 0.1875
vt 0.375 0.0625
vt 0.625 0.859375
vt 0.75 0.875
vt 0.75 0.859375
vt 0.5 0.859375
vt 0.59375 0.625
vt 0.59375 0.75
vt 0.25 0.28125
vt 0.375 0.328125
vt 0.25 0.296875
vt 0.375 0.28125
vt 0.125 0.40625
vt 0.25 0.40625
vt 0.125 0.28125
vt 0.25 0.375
vt 0.375 0.25
vt 0.5 0.375
vt 0.375 0.375
vt 0 0.328125
vt 0.125 0.328125
vt 0 0.28125
vt 0.375 0.125
vt 0.5 0.21875
vt 0.375 0.21875
vt 0.25 0.140625
vt 0.375 0.140625
vt 0 0.265625
vt 0.125 0.265625
vt 0.25 0.203125
vt 0.375 0.203125
vt 0.25 0.234375
vt 0.265625 0.25
vt 0.265625 0.234375
vt 0.5625 0.9375
vt 0.5 0.9375
vt 0.5 0.0625
vt 0.125 0.4375
vt 0.25 0.4375
vt 0.4375 0.203125
vt 0.4375 0.21875
vt 0.4375 0.171875
vt 0.4375 0.1875
vt 0.625 0.5
vt 0.625 0.375
vt 0.65625 0.40625
vt 0.625 0.40625
vt 0.625 0.75
vt 0.75 0.625
vt 0.75 0.75
vt 0.625 0.625
vn 0 0 1
vn -1 0 0
vn 0 0 -1
vn 1 0 0
vn 0 1 0
vn 0 -1 0
vn 0.24253563 0.9701425 0
vn 0 0.93632918 0.35112344
vn 0 0.9701425 -0.24253563
vn 0 -0.9701425 0.24253563
vn -9e-8 0.70710684 0.70710672
vn 0 0.70710678 0.70710678
vn 0 -0.70710684 -0.70710672
vn 8e-8 -0.70710678 -0.70710678
g Scene
usemtl 0
f 1/1/1 2/2/1 3/3/1
f 1/1/1 4/4/1 2/2/1
f 5/5/1 3/3/1 6/6/1
f 5/5/1 1/1/1 3/3/1
f 6/6/1 7/7/1 8/8/1
f 6/6/1 3/3/1 7/7/1
f 3/3/1 9/9/1 7/7/1
f 3/3/1 2/2/1 9/9/1
f 10/10/2 6/11/2 11/12/2
f 10/10/2 5/13/2 6/11/2
f 12/4/2 11/12/2 13/2/2
f 12/4/2 10/10/2 11/12/2
f 13/2/2 14/14/2 15/9/2
f 13/2/2 11/12/2 14/14/2
f 11/12/2 8/15/2 14/14/2
f 11/12/2 6/11/2 8/15/2
f 16/10/3 13/11/3 17/12/3
f 16/10/3 12/13/3 13/11/3
f 18/4/3 17/12/3 19/2/3
f 18/4/3 16/10/3 17/12/3
f 19/9/3 20/16/3 21/17/3
f 19/9/3 17/14/3 20/16/3
f 17/14/3 15/18/3 20/16/3
f 17/14/3 13/15/3 15/18/3
f 4/8/4 22/19/4 2/20/4
f 4/8/4 23/7/4 22/19/4
f 23/7/4 19/17/4 22/19/4
f 23/7/4 18/9/4 19/17/4
f 22/19/4 21/21/4 24/22/4
f 22/19/4 19/17/4 21/21/4
f 2/20/4 24/22/4 9/23/4
f 2/20/4 22/19/4 24/22/4
f 25/20/5 21/22/5 20/23/5
f 25/20/5 24/19/5 21/22/5
f 9/24/5 25/25/5 7/26/5
f 9/24/5 24/27/5 25/25/5
f 8/20/5 25/22/5 14/23/5
f 8/20/5 7/19/5 25/22/5
f 14/20/5 20/22/5 15/23/5
f 14/20/5 25/19/5 20/22/5
f 26/28/4 27/29/4 28/30/4
f 26/28/4 21/31/4 27/29/4
f 21/32/3 29/33/3 27/34/3
f 21/32/3 20/35/3 29/33/3
f 20/35/3 30/36/3 29/33/3
f 20/35/3 15/37/3 30/36/3
f 15/32/2 31/33/2 30/34/2
f 15/32/2 14/35/2 31/33/2
f 14/35/2 32/36/2 31/33/2
f 14/35/2 8/37/2 32/36/2
f 8/38/1 33/1/1 32/5/1
f 8/38/1 7/39/1 33/1/1
f 7/24/4 34/40/4 33/27/4
f 7/24/4 25/41/4 34/40/4
f 25/42/4 35/43/4 34/44/4
f 25/42/4 36/45/4 35/43/4
f 36/46/1 28/47/1 35/48/1
f 36/46/1 26/49/1 28/47/1
f 34/20/5 27/22/5 29/23/5
f 34/20/5 37/19/5 27/22/5
f 38/20/5 37/22/5 34/23/5
f 38/20/5 39/19/5 37/22/5
f 32/20/5 34/22/5 31/23/5
f 32/20/5 33/19/5 34/22/5
f 31/20/5 29/22/5 30/23/5
f 31/20/5 34/19/5 29/22/5
f 29/20/6 37/22/6 34/23/6
f 29/20/6 27/19/6 37/22/6
f 34/20/6 39/22/6 38/23/6
f 34/20/6 37/19/6 39/22/6
f 38/20/5 37/22/5 34/23/5
f 38/20/5 39/19/5 37/22/5
f 34/20/5 27/22/5 29/23/5
f 34/20/5 37/19/5 27/22/5
f 37/50/4 40/51/4 41/31/4
f 37/50/4 27/52/4 40/51/4
f 39/53/4 41/31/4 42/18/4
f 39/53/4 37/50/4 41/31/4
f 10/20/6 1/22/6 5/23/6
f 10/20/6 43/19/6 1/22/6
f 44/15/7 41/54/7 45/55/7
f 44/15/7 42/11/7 41/54/7
f 27/56/3 46/57/3 40/58/3
f 27/56/3 29/59/3 46/57/3
f 38/20/1 42/22/1 44/23/1
f 38/20/1 39/19/1 42/22/1
f 33/60/4 47/4/4 48/1/4
f 33/60/4 34/61/4 47/4/4
f 32/60/1 48/4/1 49/1/1
f 32/60/1 33/61/1 48/4/1
f 31/62/2 49/63/2 50/39/2
f 31/62/2 32/56/2 49/63/2
f 49/64/5 47/65/5 50/66/5
f 49/64/5 48/44/5 47/65/5
f 29/62/3 51/67/3 46/68/3
f 29/62/3 30/69/3 51/67/3
f 52/26/8 46/27/8 53/24/8
f 52/26/8 34/25/8 46/27/8
f 34/70/3 50/71/3 47/72/3
f 34/70/3 31/42/3 50/71/3
f 29/73/2 45/47/2 46/48/2
f 29/73/2 34/74/2 45/47/2
f 30/75/2 54/68/2 55/67/2
f 30/75/2 31/76/2 54/68/2
f 52/37/4 56/47/4 57/48/4
f 52/37/4 58/70/4 56/47/4
f 54/77/5 56/47/5 55/78/5
f 54/77/5 57/48/5 56/47/5
f 53/79/3 55/80/3 56/36/3
f 53/79/3 51/81/3 55/80/3
f 24/18/4 59/82/4 60/83/4
f 24/18/4 26/28/4 59/82/4
f 25/49/1 60/42/1 61/70/1
f 25/49/1 24/84/1 60/42/1
f 62/85/9 59/4/9 63/1/9
f 62/85/9 64/86/9 59/4/9
f 65/4/5 64/85/5 62/86/5
f 65/4/5 66/1/5 64/85/5
f 65/20/9 60/22/9 61/23/9
f 65/20/9 66/19/9 60/22/9
f 60/87/4 64/88/4 66/72/4
f 60/89/4 59/47/4 64/90/4
f 61/46/10 66/70/10 65/37/10
f 61/46/10 60/49/10 66/70/10
f 67/65/11 68/91/11 69/13/11
f 67/65/12 70/92/12 68/91/12
f 69/91/13 70/65/13 67/92/13
f 69/91/14 68/13/14 70/65/14
f 67/19/2 71/22/2 72/23/2
f 70/93/2 73/94/2 74/92/2
f 74/92/4 73/94/4 70/93/4
f 12/20/6 43/22/6 10/23/6
f 12/20/6 16/19/6 43/22/6
f 67/93/2 71/94/2 72/92/2
f 43/20/6 4/22/6 1/23/6
f 43/20/6 23/19/6 4/22/6
f 16/20/6 23/22/6 43/23/6
f 16/20/6 18/19/6 23/22/6
f 72/92/4 71/94/4 67/93/4
f 45/95/7 40/96/7 46/97/7
f 45/95/7 41/98/7 40/96/7
