mtllib SlackersFishBowl.mtl
o Default
v -0.625 0.34375 -0.28125
v -0.59375 0.625 0.21875
v -0.59375 0.625 -0.28125
v -0.625 0.34375 0.21875
v -0.25 0.625 0.5625
v -0.25 0.34375 0.59375
v -0.25 0.34375 -0.65625
v -0.25 0.625 -0.625
v 0.25 0.34375 -0.65625
v 0.25 0.625 -0.625
v 0.625 0.34375 -0.28125
v 0.59375 0.625 -0.28125
v 0.59375 0.625 0.21875
v 0.34375 0.875 -0.25
v 0.34375 0.875 0.1875
v 0.25 0.875 -0.375
v 0.25 0.625 0.5625
v 0.21875 0.875 0.3125
v -0.21875 0.875 0.3125
v -0.21875 0.875 -0.375
v -0.34375 0.875 0.1875
v -0.34375 0.875 -0.25
v 0.25 0.34375 0.59375
v -0.25 0.09375 0.5
v 0.25 0.09375 0.5
v -0.53125 0.09375 -0.28125
v -0.53125 0.09375 0.21875
v 0.53125 0.09375 0.21875
v 0.53125 0.09375 -0.28125
v 0.625 0.34375 0.21875
v 0.25 0.09375 -0.5625
v -0.25 0.09375 -0.5625
v -0.34375 -0.15625 -0.28125
v -0.34375 -0.15625 0.21875
v -0.25 -0.15625 -0.375
v -0.25 -0.15625 0.3125
v 0.34375 -0.15625 0.21875
v 0.34375 -0.15625 -0.28125
v 0.25 -0.15625 -0.375
v 0.25 -0.15625 0.3125
v 0.25 -0.15625 0.21875
v -0.21875 0.875 0.34375
v 0.21875 0.9375 0.34375
v -0.21875 0.9375 0.34375
v 0.21875 0.875 0.34375
v -0.21875 0.875 0.28125
v 0.21875 0.875 0.28125
v 0.3125 0.875 0.1875
v 0.375 0.875 -0.25
v 0.375 0.875 0.1875
v 0.3125 0.875 -0.25
v 0.375 0.9375 -0.25
v 0.375 0.9375 0.1875
v 0.28125 0.875 0.28125
v 0.3125 0.875 0.25
v 0.21875 0.875 -0.34375
v 0.3125 0.875 -0.3125
v 0.28125 0.875 -0.34375
v 0.21875 0.875 -0.40625
v -0.21875 0.875 -0.40625
v -0.21875 0.875 -0.34375
v -0.3125 0.875 -0.25
v -0.28125 0.875 -0.34375
v -0.3125 0.875 -0.3125
v -0.375 0.875 -0.25
v -0.375 0.875 0.1875
v -0.3125 0.875 0.1875
v -0.3125 0.875 0.25
v -0.28125 0.875 0.28125
v -0.21875 0.9375 -0.40625
v 0.21875 0.9375 -0.40625
v -0.375 0.9375 0.1875
v -0.375 0.9375 -0.25
v -0.21875 0.9375 -0.34375
v 0.21875 0.9375 -0.34375
v -0.3125 0.9375 -0.25
v -0.3125 0.9375 -0.3125
v -0.3125 0.9375 0.1875
v -0.28125 0.9375 -0.34375
v 0.28125 0.9375 -0.34375
v 0.3125 0.9375 -0.25
v 0.3125 0.9375 -0.3125
v 0.3125 0.9375 0.1875
v 0.3125 0.9375 0.25
v 0.21875 0.9375 0.28125
v 0.28125 0.9375 0.28125
v -0.21875 0.9375 0.28125
v -0.28125 0.9375 0.28125
v -0.3125 0.9375 0.25
v 0.25 -0.15625 -0.28125
v -0.25 -0.15625 0.21875
v -0.25 -0.15625 -0.28125
v -0.3642767071723938 0.21875 -0.0517767071723938
v -0.010723292827606201 0.71875 0.3017767071723938
v -0.3642767071723938 0.71875 -0.0517767071723938
v -0.010723292827606201 0.21875 0.3017767071723938
v 0 0.09375 -0.3125
v -0.375 0.84375 -0.3125
v 0 0.84375 -0.3125
v -0.375 0.09375 -0.3125
v 0.3125 0.09375 0.125
v 0.3125 0.84375 -0.25
v 0.3125 0.84375 0.125
v 0.3125 0.09375 -0.25
v -0.25 -0.09375 -0.375
v 0.34375 -0.09375 -0.28125
v -0.34375 -0.09375 -0.28125
v 0.25 -0.09375 -0.375
v 0.25 -0.09375 0.3125
v -0.34375 -0.09375 0.21875
v 0.34375 -0.09375 0.21875
v -0.25 -0.09375 0.3125
v 0.46875 0.09375 0.21875
v 0.25 0.09375 0.4375
v -0.46875 0.09375 -0.28125
v -0.25 0.09375 -0.5
v 0.25 0.09375 -0.5
v 0.46875 0.09375 -0.28125
v -0.46875 0.09375 0.21875
v -0.25 0.09375 0.4375
v -0.375 0.09375 -0.3125
v 0 0.84375 -0.3125
v -0.375 0.84375 -0.3125
v 0 0.09375 -0.3125
v 0.3125 0.09375 -0.25
v 0.3125 0.84375 0.125
v 0.3125 0.84375 -0.25
v 0.3125 0.09375 0.125
v -0.010723292827606201 0.21875 0.3017767071723938
v -0.3642767071723938 0.71875 -0.0517767071723938
v -0.010723292827606201 0.71875 0.3017767071723938
v -0.3642767071723938 0.21875 -0.0517767071723938
vt 0 0.9375
vt 0.0625 1
vt 0 1
vt 0.0625 0.9375
vt 0 0.375
vt 0.125 0.5
vt 0 0.5
vt 0.125 0.375
vt 0.125 0.75
vt 0 0.75
vt 0.4140625 0.875
vt 0.5 0.890625
vt 0.3984375 0.890625
vt 0.484375 0.875
vt 0.484375 0.9765625
vt 0.3984375 0.9609375
vt 0.5 0.9609375
vt 0.4140625 0.9765625
vt 0.40625 0.875
vt 0.3828125 0.8515625
vt 0.40625 0.8515625
vt 0.3828125 0.875
vt 0.40625 1
vt 0.3828125 0.9765625
vt 0.40625 0.9765625
vt 0.3828125 1
vt 0.4921875 0.96875
vt 0.515625 0.9921875
vt 0.4921875 0.9921875
vt 0.515625 0.96875
vt 0.40625 0.890625
vt 0.3828125 0.9609375
vt 0.3828125 0.890625
vt 0.40625 0.9609375
vt 0.1640625 0.859375
vt 0.265625 0.890625
vt 0.1328125 0.890625
vt 0.234375 0.859375
vt 0.4140625 0.96875
vt 0.484375 0.9921875
vt 0.4140625 0.9921875
vt 0.484375 0.96875
vt 0.3828125 0.859375
vt 0.40625 0.8828125
vt 0.3828125 0.8828125
vt 0.40625 0.859375
vt 0.234375 0.9921875
vt 0.1328125 0.9609375
vt 0.265625 0.9609375
vt 0.1640625 0.9921875
vt 0.4140625 0.859375
vt 0.484375 0.8828125
vt 0.4140625 0.8828125
vt 0.484375 0.859375
vn -0.99388373 0.11043153 0
vn -0.7049344 0.07832604 0.7049344
vn -0.7049344 0.07832604 -0.7049344
vn 0 0.11043153 -0.99388373
vn 0.7049344 0.07832604 -0.7049344
vn 0.70710678 0.70710678 0
vn 0.60206136 0.65850461 -0.45154602
vn 0.57735027 0.57735027 -0.57735027
vn 0.55337157 0.62254302 0.55337157
vn 0 0.70710678 0.70710678
vn 0 0.70710678 -0.70710678
vn -0.55337157 0.62254302 0.55337157
vn -0.70710678 0.70710678 0
vn -0.55337157 0.62254302 -0.55337157
vn 0 -0.35112344 0.93632918
vn -0.93632918 -0.35112344 0
vn -0.68348613 -0.2563073 0.68348613
vn 0.93632918 -0.35112344 0
vn 0.68348613 -0.2563073 0.68348613
vn 0.68348613 -0.2563073 -0.68348613
vn 0 -0.35112344 -0.93632918
vn -0.68348613 -0.2563073 -0.68348613
vn -0.8 -0.6 0
vn -0.62469505 -0.46852129 -0.62469505
vn -0.62469505 -0.46852129 0.62469505
vn 0.8 -0.6 0
vn 0 -0.6 -0.8
vn 0.99388373 0.11043153 0
vn 0 -1 0
vn 0.62469505 -0.46852129 -0.62469505
vn 0 0 1
vn 1 0 0
vn 0.70710678 0 0.70710678
vn 0 0 -1
vn 0.70710678 0 -0.70710678
vn -1 0 0
vn -0.70710678 0 -0.70710678
vn -0.70710678 0 0.70710678
vn 0 1 0
vn 0 -0.6 0.8
vn 0.7049344 0.07832604 0.7049344
vn 0 0.11043153 0.99388373
vn 0.62469505 -0.46852129 0.62469505
vn 0.63960215 -0.42640143 0.63960215
vn -0.63960215 -0.42640143 -0.63960215
vn 0.63960215 -0.42640143 -0.63960215
vn -0.83205029 -0.5547002 0
vn 0 -0.5547002 -0.83205029
vn -0.63960215 -0.42640143 0.63960215
vn 0.83205029 -0.5547002 0
vn 0 -0.5547002 0.83205029
g Scene
usemtl 0
f 1/1/1 2/2/1 3/3/1
f 1/1/1 4/4/1 2/2/1
f 4/1/2 5/2/2 2/3/2
f 4/1/2 6/4/2 5/2/2
f 7/1/3 3/2/3 8/3/3
f 7/1/3 1/4/3 3/2/3
f 9/1/4 8/2/4 10/3/4
f 9/1/4 7/4/4 8/2/4
f 11/1/5 10/2/5 12/3/5
f 11/1/5 9/4/5 10/2/5
f 13/1/6 14/2/6 15/3/6
f 13/1/6 12/4/6 14/2/6
f 12/1/7 16/2/7 14/3/7
f 12/1/8 10/4/8 16/2/8
f 17/1/9 15/2/9 18/3/9
f 17/1/9 13/4/9 15/2/9
f 5/1/10 18/2/10 19/3/10
f 5/1/10 17/4/10 18/2/10
f 10/1/11 20/2/11 16/3/11
f 10/1/11 8/4/11 20/2/11
f 2/1/12 19/2/12 21/3/12
f 2/1/12 5/4/12 19/2/12
f 3/1/13 21/2/13 22/3/13
f 3/1/13 2/4/13 21/2/13
f 8/1/14 22/2/14 20/3/14
f 8/1/14 3/4/14 22/2/14
f 23/1/15 24/2/15 25/3/15
f 23/1/15 6/4/15 24/2/15
f 4/1/16 26/2/16 27/3/16
f 4/1/16 1/4/16 26/2/16
f 6/1/17 27/2/17 24/3/17
f 6/1/17 4/4/17 27/2/17
f 11/1/18 28/2/18 29/3/18
f 11/1/18 30/4/18 28/2/18
f 30/1/19 25/2/19 28/3/19
f 30/1/19 23/4/19 25/2/19
f 9/1/20 29/2/20 31/3/20
f 9/1/20 11/4/20 29/2/20
f 7/1/21 31/2/21 32/3/21
f 7/1/21 9/4/21 31/2/21
f 1/1/22 32/2/22 26/3/22
f 1/1/22 7/4/22 32/2/22
f 27/1/23 33/2/23 34/3/23
f 27/1/23 26/4/23 33/2/23
f 26/1/24 35/2/24 33/3/24
f 26/1/24 32/4/24 35/2/24
f 24/1/25 34/2/25 36/3/25
f 24/1/25 27/4/25 34/2/25
f 29/1/26 37/2/26 38/3/26
f 29/1/26 28/4/26 37/2/26
f 32/1/27 39/2/27 35/3/27
f 32/1/27 31/4/27 39/2/27
f 30/1/28 12/2/28 13/3/28
f 30/1/28 11/4/28 12/2/28
f 37/1/29 40/2/29 41/3/29
f 31/1/30 38/2/30 39/3/30
f 31/1/30 29/4/30 38/2/30
f 42/1/31 43/2/31 44/3/31
f 42/1/31 45/4/31 43/2/31
f 46/1/29 45/2/29 42/3/29
f 46/1/29 47/4/29 45/2/29
f 48/1/29 49/2/29 50/3/29
f 48/1/29 51/4/29 49/2/29
f 50/1/32 52/2/32 53/3/32
f 50/1/32 49/4/32 52/2/32
f 45/1/33 53/2/33 43/3/33
f 45/1/33 50/4/33 53/2/33
f 47/1/29 54/4/29 45/3/29
f 48/1/29 50/4/29 55/3/29
f 48/1/29 54/2/29 47/3/29
f 48/1/29 55/4/29 54/2/29
f 56/1/29 57/2/29 51/3/29
f 56/1/29 58/4/29 57/2/29
f 56/1/29 59/4/29 58/3/29
f 51/1/29 57/4/29 49/3/29
f 56/1/29 60/2/29 59/3/29
f 56/1/29 61/4/29 60/2/29
f 62/1/29 63/2/29 61/3/29
f 62/1/29 64/4/29 63/2/29
f 62/1/29 65/4/29 64/3/29
f 61/1/29 63/4/29 60/3/29
f 62/1/29 66/2/29 65/3/29
f 62/1/29 67/4/29 66/2/29
f 46/1/29 68/2/29 67/3/29
f 46/1/29 69/4/29 68/2/29
f 46/1/29 42/4/29 69/3/29
f 67/1/29 68/4/29 66/3/29
f 59/1/34 70/2/34 71/3/34
f 59/1/34 60/4/34 70/2/34
f 49/1/35 71/2/35 52/3/35
f 49/1/35 59/4/35 71/2/35
f 65/1/36 72/2/36 73/3/36
f 65/1/36 66/4/36 72/2/36
f 60/1/37 73/2/37 70/3/37
f 60/1/37 65/4/37 73/2/37
f 66/1/38 44/2/38 72/3/38
f 66/1/38 42/4/38 44/2/38
f 74/1/39 71/2/39 70/3/39
f 74/1/39 75/4/39 71/2/39
f 76/1/39 77/4/39 73/3/39
f 78/1/39 73/2/39 72/3/39
f 78/1/39 76/4/39 73/2/39
f 74/1/39 77/2/39 76/3/39
f 74/1/39 79/4/39 77/2/39
f 74/1/39 70/4/39 79/3/39
f 75/1/39 80/4/39 71/3/39
f 81/1/39 80/2/39 75/3/39
f 81/1/39 82/4/39 80/2/39
f 81/1/39 52/4/39 82/3/39
f 81/1/39 53/2/39 52/3/39
f 81/1/39 83/4/39 53/2/39
f 83/1/39 84/4/39 53/3/39
f 85/1/39 84/2/39 83/3/39
f 85/1/39 86/4/39 84/2/39
f 85/1/39 43/4/39 86/3/39
f 85/1/39 44/2/39 43/3/39
f 85/1/39 87/4/39 44/2/39
f 87/1/39 88/4/39 44/3/39
f 78/1/39 88/2/39 87/3/39
f 78/1/39 89/4/39 88/2/39
f 78/1/39 72/4/39 89/3/39
f 47/1/34 87/2/34 85/3/34
f 47/1/34 46/4/34 87/2/34
f 67/1/32 76/2/32 78/3/32
f 67/1/32 62/4/32 76/2/32
f 61/1/31 75/2/31 74/3/31
f 61/1/31 56/4/31 75/2/31
f 51/1/36 83/2/36 81/3/36
f 51/1/36 48/4/36 83/2/36
f 46/1/35 78/2/35 87/3/35
f 46/1/35 67/4/35 78/2/35
f 48/1/37 85/2/37 83/3/37
f 48/1/37 47/4/37 85/2/37
f 56/1/38 81/2/38 75/3/38
f 56/1/38 51/4/38 81/2/38
f 62/1/33 74/2/33 76/3/33
f 62/1/33 61/4/33 74/2/33
f 35/1/29 40/2/29 36/3/29
f 35/1/29 39/4/29 40/2/29
f 90/1/29 37/2/29 41/3/29
f 90/1/29 38/4/29 37/2/29
f 33/1/29 91/2/29 34/3/29
f 33/1/29 92/4/29 91/2/29
f 39/1/29 38/2/29 90/3/29
f 33/1/29 35/2/29 92/3/29
f 36/1/29 34/2/29 91/3/29
f 25/1/40 36/2/40 40/3/40
f 25/1/40 24/4/40 36/2/40
f 23/1/41 13/2/41 17/3/41
f 23/1/41 30/4/41 13/2/41
f 93/5/38 94/6/38 95/7/38
f 93/5/38 96/8/38 94/6/38
f 97/7/34 98/9/34 99/10/34
f 97/7/34 100/6/34 98/9/34
f 6/1/42 17/2/42 5/3/42
f 6/1/42 23/4/42 17/2/42
f 28/1/43 40/2/43 37/3/43
f 28/1/43 25/4/43 40/2/43
f 101/7/32 102/9/32 103/10/32
f 101/7/32 104/6/32 102/9/32
f 105/11/29 106/12/29 107/13/29
f 105/11/29 108/14/29 106/12/29
f 109/15/29 110/16/29 111/17/29
f 109/15/29 112/18/29 110/16/29
f 107/13/29 111/17/29 110/16/29
f 107/13/29 106/12/29 111/17/29
f 113/19/44 109/20/44 111/21/44
f 113/19/44 114/22/44 109/20/44
f 115/23/45 105/24/45 107/25/45
f 115/23/45 116/26/45 105/24/45
f 117/27/46 106/28/46 108/29/46
f 117/27/46 118/30/46 106/28/46
f 119/31/47 107/32/47 110/33/47
f 119/31/47 115/34/47 107/32/47
f 120/35/39 113/36/39 119/37/39
f 120/35/39 114/38/39 113/36/39
f 116/39/48 108/40/48 105/41/48
f 116/39/48 117/42/48 108/40/48
f 120/43/49 110/44/49 112/45/49
f 120/43/49 119/46/49 110/44/49
f 118/32/50 111/31/50 106/34/50
f 118/32/50 113/33/50 111/31/50
f 117/47/39 115/48/39 118/49/39
f 117/47/39 116/50/39 115/48/39
f 119/37/39 118/49/39 115/48/39
f 119/37/39 113/36/39 118/49/39
f 114/51/51 112/52/51 109/53/51
f 114/51/51 120/54/51 112/52/51
f 121/7/31 122/9/31 123/10/31
f 121/7/31 124/6/31 122/9/31
f 125/7/36 126/9/36 127/10/36
f 125/7/36 128/6/36 126/9/36
f 129/5/35 130/6/35 131/7/35
f 129/5/35 132/8/35 130/6/35
