mtllib material.mtl
o Default
v -0.21278317272663116 1.4640101194381714 1.936726450920105
v -0.19384454190731049 1.444844365119934 1.939758539199829
v -0.2171078771352768 1.4636316299438477 1.9613466262817383
v -0.19816924631595612 1.4444657564163208 1.964378833770752
v -0.22006504237651825 1.5138055086135864 1.9362125396728516
v -0.2188340276479721 1.4859849214553833 1.9360013008117676
v -0.22438974678516388 1.5134270191192627 1.9608328342437744
v -0.22315873205661774 1.48560631275177 1.9606214761734009
v -0.21445874869823456 1.566409707069397 1.938005805015564
v -0.2187834531068802 1.5660312175750732 1.9626259803771973
v -0.20739687979221344 1.5932973623275757 1.9396594762802124
v -0.21172158420085907 1.592918872833252 1.9642796516418457
v -0.1948428899049759 1.6323435306549072 1.9424647092819214
v -0.1991676241159439 1.6319650411605835 1.9670848846435547
v -0.16032464802265167 1.641236424446106 1.948664665222168
v -0.16257606446743011 1.6406246423721313 1.9736454486846924
v -0.1314772218465805 1.6371262073516846 1.9790544509887695
v -0.12715254724025726 1.6375044584274292 1.9544341564178467
v -0.09964999556541443 1.6207691431045532 1.9843937158584595
v -0.09532533586025238 1.6211473941802979 1.9597734212875366
v -0.09561760723590851 1.5798569917678833 1.9844732284545898
v -0.09129294753074646 1.5802351236343384 1.9598530530929565
v -0.09438629448413849 1.5520362854003906 1.9842619895935059
v -0.09006163477897644 1.5524144172668457 1.9596418142318726
v -0.09999260306358337 1.49943208694458 1.982468843460083
v -0.09566792845726013 1.4998103380203247 1.9578485488891602
v -0.10705448687076569 1.4725443124771118 1.9808151721954346
v -0.10272981226444244 1.472922444343567 1.9561948776245117
v -0.11759014427661896 1.4524356126785278 1.978655457496643
v -0.11326548457145691 1.4528138637542725 1.9540352821350098
v -0.14011703431606293 1.4379348754882812 1.974475622177124
v -0.13579235970973969 1.4383130073547363 1.9498554468154907
v -0.09987865388393402 1.5398776531219482 1.9831103086471558
v -0.10817182064056396 1.5408107042312622 1.9816679954528809
v -0.11243261396884918 1.5008314847946167 1.9803050756454468
v -0.10391102731227875 1.5807899236679077 1.9830307960510254
v -0.20342837274074554 1.5919859409332275 1.9657220840454102
v -0.21194995939731598 1.512027621269226 1.9629963636398315
v -0.21486522257328033 1.4846733808517456 1.9620639085769653
v -0.20768915116786957 1.5520068407058716 1.964359164237976
v -0.21598230302333832 1.552939772605896 1.9629168510437012
v -0.11534789204597473 1.4734772443771362 1.9793726205825806
v -0.13282273709774017 1.6245012283325195 1.9786239862442017
v -0.16599519550800323 1.6282331943511963 1.972854495048523
v -0.13832323253154755 1.454768180847168 1.975049376487732
v -0.19637499749660492 1.4612993001937866 1.9649525880813599
v -0.21165801584720612 1.5533182621002197 1.9382965564727783
v -0.20336483418941498 1.5523852109909058 1.9397389888763428
v -0.2076256424188614 1.5124059915542603 1.9383760690689087
v -0.19910405576229095 1.5923644304275513 1.9411017894744873
v -0.0995863527059555 1.581168293952942 1.958410620689392
v -0.10810793936252594 1.5012098550796509 1.9556849002838135
v -0.11102323234081268 1.4738556146621704 1.9547524452209473
v -0.10384714603424072 1.5411890745162964 1.957047700881958
v -0.09555397927761078 1.5402560234069824 1.9584901332855225
v -0.21054093539714813 1.4850517511367798 1.9374436140060425
v -0.16167069971561432 1.6286115646362305 1.9482342004776
v -0.12849809229373932 1.6248794794082642 1.9540038108825684
v -0.19205059111118317 1.4616776704788208 1.9403324127197266
v -0.1339985877275467 1.4551465511322021 1.9504292011260986
v -0.41204598546028137 1.2156047821044922 1.9484572410583496
v -0.3938314914703369 1.196851134300232 1.9484057426452637
v -0.4112400710582733 1.2163187265396118 1.9734340906143188
v -0.39302557706832886 1.1975650787353516 1.973382592201233
v -0.3640061616897583 1.1881195306777954 1.947693109512329
v -0.36320027709007263 1.188833475112915 1.9726699590682983
v -0.4285470247268677 1.2429356575012207 1.948208212852478
v -0.427741140127182 1.2436496019363403 1.9731850624084473
v -0.4516523480415344 1.2990422248840332 1.9473494291305542
v -0.45084643363952637 1.2997561693191528 1.9723262786865234
v -0.4591807425022125 1.3300621509552002 1.9467054605484009
v -0.45837485790252686 1.3307760953903198 1.9716823101043701
v -0.4677681028842926 1.376392126083374 1.9456579685211182
v -0.46696218848228455 1.3771060705184937 1.9706346988677979
v -0.43742266297340393 1.4046136140823364 1.9438719749450684
v -0.4343735873699188 1.4062498807907104 1.9687501192092896
v -0.4007268249988556 1.4200836420059204 1.967268943786621
v -0.4015325903892517 1.4193693399429321 1.9422922134399414
v -0.35929080843925476 1.4213740825653076 1.965895175933838
v -0.36009660363197327 1.4206597805023193 1.9409184455871582
v -0.3327580988407135 1.3824222087860107 1.9661529064178467
v -0.333563894033432 1.3817079067230225 1.9411760568618774
v -0.3162570297718048 1.3550913333892822 1.9664019346237183
v -0.3170627951622009 1.354377031326294 1.941425085067749
v -0.29315170645713806 1.2989847660064697 1.9672605991363525
v -0.2939574718475342 1.2982704639434814 1.9422837495803833
v -0.2856232523918152 1.2679647207260132 1.9679045677185059
v -0.2864290177822113 1.267250418663025 1.9429277181625366
v -0.28535374999046326 1.241833209991455 1.9686429500579834
v -0.2861595153808594 1.2411189079284668 1.9436662197113037
v -0.30039164423942566 1.2146565914154053 1.969905138015747
v -0.30119743943214417 1.213942289352417 1.9449284076690674
v -0.31519827246665955 1.3397809267044067 1.9668054580688477
v -0.32417094707489014 1.3360919952392578 1.9672003984451294
v -0.3066108822822571 1.293450951576233 1.96785306930542
v -0.3417309820652008 1.3787329196929932 1.9665478467941284
v -0.44940221309661865 1.3344652652740479 1.9712873697280884
v -0.4142821431159973 1.2491832971572876 1.9725924730300903
v -0.40226736664772034 1.2200078964233398 1.9730390310287476
v -0.431842178106308 1.291824221611023 1.9719399213790894
v -0.4408148229122162 1.288135290145874 1.972334861755371
v -0.2945961058139801 1.2642755508422852 1.9682995080947876
v -0.3951815366744995 1.4066179990768433 1.9674750566482544
v -0.431071937084198 1.391862154006958 1.969054937362671
v -0.30778560042381287 1.2326105833053589 1.9696303606033325
v -0.3705938160419464 1.2067878246307373 1.9723951816558838
v -0.4416210949420929 1.2874209880828857 1.9473581314086914
v -0.4326484203338623 1.2911100387573242 1.9469630718231201
v -0.41508838534355164 1.2484689950942993 1.9476157426834106
v -0.450208455324173 1.3337509632110596 1.9463105201721191
v -0.3425368368625641 1.378018856048584 1.9415709972381592
v -0.30741676688194275 1.2927368879318237 1.9428762197494507
v -0.2954019606113434 1.263561487197876 1.943322777748108
v -0.3249768018722534 1.335377812385559 1.9422236680984497
v -0.3160041570663452 1.3390668630599976 1.9418286085128784
v -0.40307360887527466 1.2192935943603516 1.9480623006820679
v -0.431878000497818 1.3911479711532593 1.9440780878067017
v -0.3959874212741852 1.405903935432434 1.9424982070922852
v -0.37139996886253357 1.206073522567749 1.9474183320999146
v -0.30859145522117615 1.2318965196609497 1.9446536302566528
v -0.28441429138183594 1.2627185583114624 1.9367969036102295
v -0.27879416942596436 1.2344306707382202 1.937288522720337
v -0.2865932285785675 1.2627183198928833 1.96170175075531
v -0.2809731066226959 1.2344304323196411 1.962193489074707
v -0.25594019889831543 1.2081348896026611 1.9392880201339722
v -0.258119136095047 1.208134651184082 1.9641929864883423
v -0.283081978559494 1.2977678775787354 1.9369134902954102
v -0.2852609157562256 1.2977676391601562 1.9618183374404907
v -0.27013659477233887 1.3630971908569336 1.9380459785461426
v -0.27231553196907043 1.363097071647644 1.9629509449005127
v -0.25800570845603943 1.3959903717041016 1.9391072988510132
v -0.2601846158504486 1.395990252494812 1.9640122652053833
v -0.23736856877803802 1.4434845447540283 1.9409128427505493
v -0.2395475059747696 1.4434843063354492 1.9658176898956299
v -0.1910671442747116 1.4505388736724854 1.9449636936187744
v -0.1905464082956314 1.4499995708465576 1.9701048135757446
v -0.1500522643327713 1.4419143199920654 1.9736474752426147
v -0.1478734165430069 1.4419142007827759 1.9487426280975342
v -0.10996463149785995 1.4176105260849 1.9771547317504883
v -0.10778575390577316 1.4176104068756104 1.9522498846054077
v -0.10900446027517319 1.3658040761947632 1.9772387742996216
v -0.10682561248540878 1.365803837776184 1.9523338079452515
v -0.11033674329519272 1.3307547569274902 1.977122187614441
v -0.10815789550542831 1.3307545185089111 1.9522173404693604
v -0.12328209728002548 1.2654253244400024 1.975989580154419
v -0.12110324949026108 1.265425205230713 1.9510847330093384
v -0.1354130357503891 1.232532024383545 1.9749282598495483
v -0.1332341879606247 1.2325319051742554 1.9500234127044678
v -0.15138976275920868 1.2085565328598022 1.9735305309295654
v -0.14921091496944427 1.2085562944412231 1.9486256837844849
v -0.18252874910831451 1.1930415630340576 1.9708062410354614
v -0.18034987151622772 1.1930413246154785 1.9459012746810913
v -0.12868179380893707 1.2665033340454102 1.9755171537399292
v -0.26691606640815735 1.3620190620422363 1.963423252105713
v -0.11884327977895737 1.316153645515442 1.9763779640197754
v -0.12964190542697906 1.3183099031448364 1.9754332304000854
v -0.1394803673028946 1.2686594724655151 1.9745724201202393
v -0.11980342119932175 1.3679602146148682 1.976293921470642
v -0.24938590824604034 1.3938342332839966 1.9649569988250732
v -0.2798614203929901 1.296689748764038 1.962290644645691
v -0.26906290650367737 1.2945334911346436 1.9632354974746704
v -0.27579450607299805 1.2605621814727783 1.962646484375
v -0.25922441482543945 1.3441839218139648 1.964096188545227
v -0.270022988319397 1.3463400602340698 1.963151454925537
v -0.14621196687221527 1.23468816280365 1.9739835262298584
v -0.11573641747236252 1.331832766532898 1.9766497611999512
v -0.15315915644168854 1.426235318183899 1.973375678062439
v -0.19635333120822906 1.4348599910736084 1.9695967435836792
v -0.17838652431964874 1.213947057723999 1.9711686372756958
v -0.25397631525993347 1.2290401458740234 1.9645553827285767
v -0.2776830792427063 1.2966898679733276 1.9373857975006104
v -0.11355756968259811 1.331832766532898 1.9517449140548706
v -0.26784461736679077 1.3463401794433594 1.938246488571167
v -0.25704601407051086 1.3441839218139648 1.939191222190857
v -0.2668844759464264 1.294533610343933 1.9383305311203003
v -0.24720750749111176 1.3938343524932861 1.9400520324707031
v -0.11762454360723495 1.3679602146148682 1.9513890743255615
v -0.12650291621685028 1.2665033340454102 1.950701355934143
v -0.1373015195131302 1.2686594724655151 1.9496675729751587
v -0.14403311908245087 1.23468816280365 1.9490786790847778
v -0.12746302783489227 1.3183099031448364 1.9505282640457153
v -0.11666443198919296 1.316153645515442 1.9514731168746948
v -0.27361610531806946 1.2605623006820679 1.9377416372299194
v -0.26473769545555115 1.3620191812515259 1.9385182857513428
v -0.19417469203472137 1.4348599910736084 1.944691777229309
v -0.15098033845424652 1.426235318183899 1.9484708309173584
v -0.25179779529571533 1.229040265083313 1.9396504163742065
v -0.17620767652988434 1.213947057723999 1.9462636709213257
v -0.36874932050704956 1.0968748331069946 1.9468750953674316
v -0.36249929666519165 1.0968748331069946 1.9468750953674316
v -0.36874932050704956 1.0187499523162842 1.9468750953674316
v -0.36249929666519165 1.0187499523162842 1.9468750953674316
v -0.349999338388443 0.9781250357627869 1.9468750953674316
v -0.19999945163726807 0.9781250357627869 1.9468750953674316
v -0.349999338388443 0.9468747973442078 1.9468750953674316
v -0.19999945163726807 0.9468747973442078 1.9468750953674316
v -0.18749946355819702 0.9781250357627869 1.9468750953674316
v -0.36249932646751404 0.9781250357627869 1.9468750953674316
v -0.318749338388443 0.9468750357627869 1.9468750953674316
v -0.318749338388443 0.9218748211860657 1.9468750953674316
v -0.23124945163726807 0.9468750357627869 1.9468750953674316
v -0.23124945163726807 0.9218748211860657 1.9468750953674316
v -0.2999993860721588 1.196874976158142 1.9468750953674316
v -0.349999338388443 1.196874976158142 1.9468750953674316
v -0.24999940395355225 1.2156250476837158 1.9468750953674316
v -0.19999945163726807 1.196874976158142 1.9468750953674316
v -0.24999940395355225 1.196874976158142 1.9468750953674316
v -0.36249929666519165 1.1374999284744263 1.9468750953674316
v -0.3499993085861206 1.0187499523162842 1.9468750953674316
v -0.1874994933605194 1.0968748331069946 1.9468750953674316
v -0.1812494695186615 1.0187499523162842 1.9468750953674316
v -0.1874994933605194 1.0187499523162842 1.9468750953674316
v -0.1812494695186615 1.0968748331069946 1.9468750953674316
v -0.3499993085861206 1.1374999284744263 1.9468750953674316
v -0.19999948143959045 1.1374999284744263 1.9468750953674316
v -0.18749946355819702 1.0781248807907104 1.9468750953674316
v -0.19999948143959045 1.0781248807907104 1.9468750953674316
v -0.18749946355819702 1.1374999284744263 1.9468750953674316
v -0.19999948143959045 1.0187499523162842 1.9468750953674316
v -0.36249932646751404 1.0781248807907104 1.9468750953674316
v -0.3499993085861206 1.0781248807907104 1.9468750953674316
v -0.1812494397163391 1.0968748331069946 1.9718750715255737
v -0.18749946355819702 1.0968748331069946 1.9718750715255737
v -0.1812494397163391 1.0187499523162842 1.9718750715255737
v -0.18749946355819702 1.0187499523162842 1.9718750715255737
v -0.19999942183494568 0.9781250357627869 1.9718750715255737
v -0.34999880194664 0.9781250357627869 1.9718750715255737
v -0.19999942183494568 0.9468747973442078 1.9718750715255737
v -0.34999880194664 0.9468747973442078 1.9718750715255737
v -0.3624987304210663 0.9781250357627869 1.9718750715255737
v -0.18749943375587463 0.9781250357627869 1.9718750715255737
v -0.23124942183494568 0.9468750357627869 1.9718750715255737
v -0.23124942183494568 0.9218748211860657 1.9718750715255737
v -0.31874895095825195 0.9468750357627869 1.9718750715255737
v -0.31874895095825195 0.9218748211860657 1.9718750715255737
v -0.24999940395355225 1.2156250476837158 1.9718750715255737
v -0.24999931454658508 1.196874976158142 1.9718750715255737
v -0.19999942183494568 1.196874976158142 1.9718750715255737
v -0.3499987721443176 1.196874976158142 1.9718750715255737
v -0.29999908804893494 1.196874976158142 1.9718750715255737
v -0.18749946355819702 1.1374999284744263 1.9718750715255737
v -0.19999945163726807 1.0187499523162842 1.9718750715255737
v -0.3624986708164215 1.0968748331069946 1.9718750715255737
v -0.36874866485595703 1.0187499523162842 1.9718750715255737
v -0.3624986708164215 1.0187499523162842 1.9718750715255737
v -0.36874866485595703 1.0968748331069946 1.9718750715255737
v -0.19999945163726807 1.1374999284744263 1.9718750715255737
v -0.34999874234199524 1.1374999284744263 1.9718750715255737
v -0.3624987304210663 1.0781248807907104 1.9718750715255737
v -0.34999874234199524 1.0781248807907104 1.9718750715255737
v -0.3624987304210663 1.1374999284744263 1.9718750715255737
v -0.34999874234199524 1.0187499523162842 1.9718750715255737
v -0.18749943375587463 1.0781248807907104 1.9718750715255737
v -0.19999945163726807 1.0781248807907104 1.9718750715255737
v -0.5155937671661377 0.96875 1.859375
v -0.4843437671661377 0.859375 1.859375
v -0.3749687671661377 0.96875 1.71875
v -0.3749687671661377 0.859375 1.75
v -0.3749687671661377 0.9249998331069946 1.71875
v -0.5312187671661377 0.9249998331069946 1.859375
v -0.5155937671661377 0.9249998331069946 1.859375
v -0.3749687671661377 0.9249998331069946 1.703125
v -0.1874687671661377 0.96875 1.703125
v -0.3749687671661377 0.96875 1.703125
v -0.1874687671661377 0.921875 1.703125
v -0.1874687671661377 0.921875 1.71875
v -0.046843767166137695 0.921875 1.859375
v -0.031218767166137695 0.921875 1.859375
v -0.046843767166137695 0.96875 1.859375
v -0.1874687671661377 0.96875 1.71875
v -0.031218767166137695 0.96875 1.859375
v -0.5124995708465576 0.921875 1.8562207221984863
v -0.5281245708465576 0.921875 1.8562207221984863
v -0.3718745708465576 0.921875 1.6999707221984863
v -0.1874687671661377 0.859375 1.75
v -0.1875 0.921875 2.1875312328338623
v -0.1875 0.6875 2.1719062328338623
v -0.046875 0.921875 2.0469062328338623
v -0.0625 0.6875 2.0469062328338623
v -0.0625 0.6875 1.8594062328338623
v -0.5 0.6875 1.8594062328338623
v -0.515625 0.921875 2.0469062328338623
v -0.5 0.6875 2.0469062328338623
v -0.1875312328338623 0.6875 1.7344374656677246
v -0.3750312328338623 0.6875 1.7344374656677246
v -0.375 0.921875 2.1875312328338623
v -0.375 0.6875 2.1719062328338623
v -0.1875 0.921875 1.859375
v -0.050000011920928955 0.875 1.859375
v -0.1875 0.875 1.7218749523162842
v -0.375 0.875 2.184375047683716
v -0.375 0.921875 2.046875
v -0.5125000476837158 0.875 2.046875
v -0.1875 0.921875 2.046875
v -0.050000011920928955 0.875 2.046875
v -0.375 0.9218747615814209 1.859375
v -0.5125000476837158 0.875 1.859375
v -0.375 0.875 1.7218749523162842
v -0.1875 0.875 2.184375047683716
v -0.046843767166137695 0.96875 2.046875
v -0.0780937671661377 0.859375 2.046875
v -0.1874687671661377 0.96875 2.1875
v -0.1874687671661377 0.859375 2.15625
v -0.0780937671661377 0.859375 1.859375
v -0.031218767166137695 0.921875 2.046875
v -0.1874687671661377 0.921875 2.203125
v -0.031218767166137695 0.96875 2.046875
v -0.1874687671661377 0.96875 2.203125
v -0.3749687671661377 0.96875 2.1875
v -0.3749687671661377 0.859375 2.15625
v -0.5155937671661377 0.96875 2.046875
v -0.4843437671661377 0.859375 2.046875
v -0.3749687671661377 0.921875 2.203125
v -0.5312187671661377 0.921875 2.046875
v -0.3749687671661377 0.96875 2.203125
v -0.5312187671661377 0.96875 2.046875
v -0.5312187671661377 0.96875 1.859375
vt 0.9546874165534973 0.5906249284744263
vt 0.9546875357627869 0.5890623927116394
vt 0.9562499523162842 0.5906249284744263
vt 0.956250011920929 0.5890623927116394
vt 0.9628905057907104 0.5933592915534973
vt 0.962890625 0.5917967557907104
vt 0.9644530415534973 0.5933592915534973
vt 0.9644531011581421 0.5917967557907104
vt 0.9632810950279236 0.5960936546325684
vt 0.9632812142372131 0.5898436307907104
vt 0.9648436307907104 0.5960936546325684
vt 0.9648436903953552 0.5898436307907104
vt 0.9632810950279236 0.5960937142372131
vt 0.9632812142372131 0.5898436903953552
vt 0.9648436307907104 0.5960937142372131
vt 0.9648436903953552 0.5898436903953552
vt 0.9554686546325684 0.5999999046325684
vt 0.9554687738418579 0.5927733182907104
vt 0.9570311903953552 0.5999999046325684
vt 0.95703125 0.5927733182907104
vt 0.9515623450279236 0.5921874642372131
vt 0.9515624642372131 0.5898435711860657
vt 0.9531248807907104 0.5921874642372131
vt 0.9531249403953552 0.5898435711860657
vt 0.9554686546325684 0.5914061665534973
vt 0.9554687738418579 0.5898436307907104
vt 0.9570311903953552 0.5914061665534973
vt 0.95703125 0.5898436307907104
vt 0.9437499642372131 0.5890624523162842
vt 0.9546875357627869 0.5890624523162842
vt 0.9437499642372131 0.5859374403953552
vt 0.9546875357627869 0.5859374403953552
vt 0.9382811784744263 0.6078124642372131
vt 0.9398437738418579 0.6078124642372131
vt 0.9382811784744263 0.600390613079071
vt 0.9398437738418579 0.600390613079071
vt 0.9382811784744263 0.615234375
vt 0.9398437738418579 0.615234375
vt 0.9585936665534973 0.6226562261581421
vt 0.9609375 0.615234375
vt 0.9585936665534973 0.615234375
vt 0.9585936665534973 0.600390613079071
vt 0.960156261920929 0.5953125357627869
vt 0.9585936665534973 0.5953125357627869
vt 0.960156261920929 0.600390613079071
vt 0.9585936665534973 0.6078124642372131
vt 0.960156261920929 0.6078124642372131
vt 0.960156261920929 0.615234375
vt 0.9398437738418579 0.6226562261581421
vt 0.9374999403953552 0.615234375
vt 0.9382811784744263 0.5953125357627869
vt 0.9398437738418579 0.5953125357627869
vt 0.946093738079071 0.625
vt 0.952343761920929 0.625
vt 0.946093738079071 0.6221354603767395
vt 0.952343761920929 0.6222005486488342
vt 0.9585937857627869 0.6224609613418579
vt 0.952343761920929 0.6223958730697632
vt 0.946093738079071 0.6219401359558105
vt 0.9398437142372131 0.6218750476837158
vt 0.9437499642372131 0.5914062261581421
vt 0.9546875357627869 0.5914062261581421
vt 0.9437499642372131 0.5882812142372131
vt 0.9546875357627869 0.5882812142372131
vt 0.9585937857627869 0.5914062261581421
vt 0.9398437142372131 0.5914062261581421
vt 0.892969012260437 0.5914061665534973
vt 0.8929691314697266 0.5898436307907104
vt 0.8945315480232239 0.5914061665534973
vt 0.8945316076278687 0.5898436307907104
vt 0.892187774181366 0.5906249284744263
vt 0.8921878933906555 0.5890623927116394
vt 0.8937503099441528 0.5906249284744263
vt 0.8937503695487976 0.5890623927116394
vt 0.9003908634185791 0.5933592915534973
vt 0.9003909826278687 0.5917967557907104
vt 0.901953399181366 0.5933592915534973
vt 0.9019534587860107 0.5917967557907104
vt 0.9007814526557922 0.5960936546325684
vt 0.9007815718650818 0.5898436307907104
vt 0.9023439884185791 0.5960936546325684
vt 0.9023440480232239 0.5898436307907104
vt 0.9007814526557922 0.5960937142372131
vt 0.9007815718650818 0.5898436903953552
vt 0.9023439884185791 0.5960937142372131
vt 0.9023440480232239 0.5898436903953552
vt 0.892969012260437 0.5960936546325684
vt 0.8945315480232239 0.5960936546325684
vt 0.8929689526557922 0.5921874642372131
vt 0.8929690718650818 0.5898435711860657
vt 0.8945314884185791 0.5921874642372131
vt 0.8945315480232239 0.5898435711860657
vt 0.8812503218650818 0.5890624523162842
vt 0.8921878933906555 0.5890624523162842
vt 0.8812503218650818 0.5859374403953552
vt 0.8921878933906555 0.5859374403953552
vt 0.8757815361022949 0.6078124642372131
vt 0.8773441314697266 0.6078124642372131
vt 0.8757815361022949 0.600390613079071
vt 0.8773441314697266 0.600390613079071
vt 0.8757815361022949 0.615234375
vt 0.8773441314697266 0.615234375
vt 0.896094024181366 0.6226562261581421
vt 0.8984378576278687 0.615234375
vt 0.896094024181366 0.615234375
vt 0.896094024181366 0.600390613079071
vt 0.8976566195487976 0.5953125357627869
vt 0.896094024181366 0.5953125357627869
vt 0.8976566195487976 0.600390613079071
vt 0.896094024181366 0.6078124642372131
vt 0.8976566195487976 0.6078124642372131
vt 0.8976566195487976 0.615234375
vt 0.8773441314697266 0.6226562261581421
vt 0.8750002980232239 0.615234375
vt 0.8757815361022949 0.5953125357627869
vt 0.8773441314697266 0.5953125357627869
vt 0.8835940957069397 0.625
vt 0.8898441195487976 0.625
vt 0.8835940957069397 0.6221354603767395
vt 0.8898441195487976 0.6222005486488342
vt 0.8960941433906555 0.6224609613418579
vt 0.8898441195487976 0.6223958730697632
vt 0.8835940957069397 0.6219401359558105
vt 0.8773440718650818 0.6218750476837158
vt 0.8812503218650818 0.5914062261581421
vt 0.8921878933906555 0.5914062261581421
vt 0.8812503218650818 0.5882812142372131
vt 0.8921878933906555 0.5882812142372131
vt 0.8960941433906555 0.5914062261581421
vt 0.8773440718650818 0.5914062261581421
vt 0.8750002980232239 0.600390613079071
vt 0.8757816553115845 0.600390613079071
vt 0.8757816553115845 0.5953124761581421
vt 0.8976565003395081 0.615234375
vt 0.8984378576278687 0.610156238079071
vt 0.8976565003395081 0.610156238079071
vt 0.8976565003395081 0.600390613079071
vt 0.8984378576278687 0.600390613079071
vt 0.8976565003395081 0.592968761920929
vt 0.8757816553115845 0.610156238079071
vt 0.8750002980232239 0.610156238079071
vt 0.8124999403953552 0.610156238079071
vt 0.8132812976837158 0.610156238079071
vt 0.8124999403953552 0.600390613079071
vt 0.8132812976837158 0.600390613079071
vt 0.8148437142372131 0.5953124761581421
vt 0.8335937857627869 0.5953124761581421
vt 0.8148437142372131 0.5914062261581421
vt 0.8335937857627869 0.5914062261581421
vt 0.835156261920929 0.5953124761581421
vt 0.8132811784744263 0.5953124761581421
vt 0.8187500238418579 0.5914062261581421
vt 0.8187500238418579 0.5882812142372131
vt 0.8296874761581421 0.5914062261581421
vt 0.8296874761581421 0.5882812142372131
vt 0.821093738079071 0.625
vt 0.821093738079071 0.6219401359558105
vt 0.8148437142372131 0.6218750476837158
vt 0.827343761920929 0.625
vt 0.8335937857627869 0.6224609613418579
vt 0.827343761920929 0.6223958730697632
vt 0.821093738079071 0.6221354603767395
vt 0.827343761920929 0.6222005486488342
vt 0.8132812976837158 0.615234375
vt 0.8148437142372131 0.6226562261581421
vt 0.8335937857627869 0.6226562261581421
vt 0.8148437738418579 0.600390613079071
vt 0.8351561427116394 0.610156238079071
vt 0.8359375 0.600390613079071
vt 0.8351561427116394 0.600390613079071
vt 0.8359375 0.610156238079071
vt 0.8148437738418579 0.615234375
vt 0.8124999403953552 0.615234375
vt 0.8335936665534973 0.615234375
vt 0.835156261920929 0.6078124642372131
vt 0.8335936665534973 0.6078124642372131
vt 0.835156261920929 0.615234375
vt 0.8335936665534973 0.600390613079071
vt 0.8351561427116394 0.592968761920929
vt 0.8359375 0.615234375
vt 0.8132811784744263 0.6078124642372131
vt 0.8148437738418579 0.6078124642372131
vt 0.8187499642372131 0.5890624523162842
vt 0.8296875357627869 0.5890624523162842
vt 0.8187499642372131 0.5859374403953552
vt 0.8296875357627869 0.5859374403953552
vt 0.8296874165534973 0.5906249284744263
vt 0.8296875357627869 0.5890623927116394
vt 0.8312499523162842 0.5906249284744263
vt 0.831250011920929 0.5890623927116394
vt 0.8304686546325684 0.5914061665534973
vt 0.8304687738418579 0.5898436307907104
vt 0.8320311903953552 0.5914061665534973
vt 0.83203125 0.5898436307907104
vt 0.8378905057907104 0.5933592915534973
vt 0.837890625 0.5917967557907104
vt 0.8394530415534973 0.5933592915534973
vt 0.8394531011581421 0.5917967557907104
vt 0.8382810950279236 0.5960936546325684
vt 0.8382812142372131 0.5898436307907104
vt 0.8398436307907104 0.5960936546325684
vt 0.8398436903953552 0.5898436307907104
vt 0.8382810950279236 0.5960937142372131
vt 0.8382812142372131 0.5898436903953552
vt 0.8398436307907104 0.5960937142372131
vt 0.8398436903953552 0.5898436903953552
vt 0.8304686546325684 0.5960936546325684
vt 0.8320311903953552 0.5960936546325684
vt 0.8304685950279236 0.5921874642372131
vt 0.8304687142372131 0.5898435711860657
vt 0.8320311307907104 0.5921874642372131
vt 0.8320311903953552 0.5898435711860657
vt 0.76171875 0.74609375
vt 0.7734375 0.74609375
vt 0.76171875 0.734375
vt 0.7734375 0.734375
vt 0.75 0.74609375
vt 0.75 0.734375
vt 0.859375 0.7265625
vt 0.8828125 0.7265625
vt 0.859375 0.75
vt 0.8359375 0.6796875
vt 0.8359375 0.703125
vt 0.8125 0.703125
vt 0.859375 0.703125
vt 0.8828125 0.703125
vt 0.8359375 0.7265625
vt 0.8125 0.7265625
vt 0.8359375 0.75
vt 0.859375 0.6796875
vn -0.69441569 -0.707204 -0.13285088
vn -0.69441698 -0.70720217 -0.13285386
vn -0.98393153 -0.0422201 -0.17348261
vn -0.98393139 -0.04221916 -0.17348361
vn -0.97921265 0.11016551 -0.1703119
vn -0.97921283 0.11016511 -0.17031111
vn -0.95172097 0.25999938 -0.16317938
vn -0.93638849 0.31253643 -0.15967959
vn -0.93638889 0.31253577 -0.15967854
vn -0.24968624 0.96832604 0.0012112
vn -0.22602292 0.97380797 -0.02473228
vn 0.10590326 0.993799 0.03388287
vn 0.10591414 0.9937982 0.03387244
vn 0.44299426 0.89184132 0.0915158
vn 0.44299447 0.89184124 0.09151557
vn 0.98002813 0.09693111 0.17363531
vn 0.98002805 0.09693132 0.17363567
vn 0.98393133 0.04223046 0.17348117
vn 0.97921269 -0.1101654 0.17031173
vn 0.97921279 -0.11016574 0.17031097
vn 0.95172103 -0.25999881 0.16317997
vn 0.9517211 -0.25999775 0.16318126
vn 0.86984043 -0.47137268 0.14555211
vn 0.86983974 -0.47137466 0.14554985
vn 0.52900159 -0.84484707 0.07994206
vn 0.52900417 -0.844845 0.07994696
vn -0.10591204 -0.99379859 -0.03386743
vn -0.10591658 -0.99379742 -0.03388742
vn -0.17297647 -0.01513171 0.98480971
vn -0.17299605 -0.01513565 0.98480621
vn -0.17298529 -0.01513572 0.9848081
vn -0.17297681 -0.01513488 0.98480961
vn -0.1729893 -0.01513371 0.98480743
vn -0.17298337 -0.01513468 0.98480846
vn -0.17298077 -0.01513582 0.98480889
vn -0.17298062 -0.01513439 0.98480894
vn -0.17297702 -0.015136 0.98480955
vn -0.17297722 -0.01513788 0.98480949
vn -0.17298932 -0.01513384 0.98480742
vn -0.17298531 -0.01513583 0.9848081
vn -0.17299568 -0.01513218 0.98480633
vn -0.17299902 -0.01513282 0.98480574
vn -0.17298765 -0.01513506 0.9848077
vn -0.17298701 -0.01513471 0.98480782
vn -0.17299024 -0.01514171 0.98480714
vn -0.1729841 -0.01512999 0.9848084
vn -0.17298753 -0.01512901 0.98480781
vn -0.17299083 -0.01514164 0.98480704
vn -0.17298748 -0.01513265 0.98480776
vn -0.17298564 -0.01512805 0.98480816
vn -0.17298443 -0.01512818 0.98480837
vn -0.17298886 -0.01513249 0.98480753
vn -0.17299872 -0.01512999 0.98480583
vn -0.17298329 -0.01513391 0.98480848
vn -0.17298665 -0.01513135 0.98480793
vn -0.17298732 -0.01513345 0.98480778
vn 0.17299024 0.01513489 -0.98480725
vn 0.17298623 0.01513669 -0.98480792
vn 0.17298361 0.01513561 -0.9848084
vn 0.17299009 0.01513345 -0.98480729
vn 0.17298572 0.01513296 -0.98480807
vn 0.17298556 0.01513424 -0.98480808
vn 0.17298691 0.0151345 -0.98480784
vn 0.17298683 0.01513375 -0.98480786
vn 0.1729905 0.01513449 -0.98480721
vn 0.17299069 0.01513625 -0.98480715
vn 0.17298603 0.01513579 -0.98480797
vn 0.1729836 0.01513549 -0.9848084
vn 0.17298572 0.01513188 -0.98480809
vn 0.17297854 0.01513503 -0.9848093
vn 0.17298666 0.015135 -0.98480787
vn 0.17298748 0.01513429 -0.98480774
vn 0.17298644 0.01513493 -0.98480791
vn 0.17298709 0.01513236 -0.98480784
vn 0.17298634 0.01513244 -0.98480797
vn 0.17298599 0.01513498 -0.98480799
vn 0.17298738 0.0151381 -0.9848077
vn 0.1729883 0.01513265 -0.98480762
vn 0.17298883 0.01513259 -0.98480753
vn 0.17298797 0.01513803 -0.9848076
vn 0.17297826 0.01513241 -0.98480939
vn 0.17298526 0.01513142 -0.98480817
vn 0.17298717 0.01513141 -0.98480784
vn 0.17298719 0.0151312 -0.98480784
vn -0.71661995 -0.69613578 0.0430213
vn -0.27997597 -0.95931459 0.03645512
vn -0.27997624 -0.95931452 0.03645479
vn -0.85547556 -0.51610818 0.04235471
vn -0.85547511 -0.51610883 0.04235573
vn -0.92411663 -0.37993912 0.04067824
vn -0.92411684 -0.37993873 0.04067713
vn -0.97126664 -0.234932 0.03805353
vn -0.97126639 -0.23493284 0.0380547
vn -0.98273239 -0.18131745 0.03689229
vn -0.98273256 -0.18131678 0.03689093
vn -0.67948867 0.73284697 0.03507815
vn -0.66660526 0.74541089 0.00020198
vn -0.38075569 0.92456749 -0.01414439
vn -0.38074803 0.92457043 -0.01415834
vn -0.03202823 0.99910747 -0.02753993
vn -0.03202825 0.99910747 -0.02753989
vn 0.82585484 0.56226193 -0.04272356
vn 0.82585479 0.56226202 -0.04272335
vn 0.85547501 0.51610874 -0.04235903
vn 0.85547463 0.51610945 -0.04235802
vn 0.9241166 0.37993919 -0.04067817
vn 0.97126646 0.23493294 -0.03805228
vn 0.99942729 0.00938877 -0.03251052
vn 0.99942729 0.00938862 -0.03251067
vn 0.87460645 -0.48462096 -0.01435584
vn 0.87460601 -0.48462172 -0.01435684
vn 0.38075035 -0.92456948 0.01415778
vn 0.3807449 -0.92457195 0.01414336
vn 0.03223146 0.02856425 0.99907218
vn 0.03223379 0.0285662 0.99907205
vn 0.0322306 0.02856176 0.99907228
vn 0.03223207 0.02856276 0.9990722
vn 0.03223052 0.02856495 0.99907219
vn 0.03224176 0.02856931 0.9990717
vn 0.03224202 0.02856933 0.99907169
vn 0.0322429 0.02856721 0.99907172
vn 0.03223077 0.02856619 0.99907214
vn 0.03223219 0.02856273 0.9990722
vn 0.03223149 0.0285626 0.99907222
vn 0.03222959 0.02856421 0.99907224
vn 0.0322348 0.02856376 0.99907208
vn 0.03223141 0.02856097 0.99907227
vn 0.03223356 0.0285645 0.9990721
vn 0.03223364 0.02856463 0.9990721
vn 0.03223519 0.02856715 0.99907197
vn 0.03223523 0.02856356 0.99907208
vn 0.03223215 0.02856286 0.9990722
vn 0.03223355 0.02856647 0.99907205
vn 0.03223486 0.02856555 0.99907203
vn 0.032235 0.02856429 0.99907206
vn 0.03223368 0.02856374 0.99907212
vn 0.03223324 0.02856488 0.9990721
vn 0.03223074 0.02856259 0.99907225
vn 0.03224117 0.02857076 0.99907168
vn 0.03223393 0.0285639 0.99907211
vn 0.03223326 0.02856751 0.99907203
vn -0.03224296 -0.0285676 -0.99907171
vn -0.03223576 -0.02856699 -0.99907196
vn -0.03223276 -0.02856538 -0.9990721
vn -0.03224308 -0.02856729 -0.99907172
vn -0.032231 -0.02856212 -0.99907225
vn -0.03224167 -0.0285693 -0.9990717
vn -0.032235 -0.02856381 -0.99907208
vn -0.03223495 -0.02856394 -0.99907207
vn -0.0322421 -0.02856992 -0.99907167
vn -0.03224222 -0.02856964 -0.99907168
vn -0.03223103 -0.02856203 -0.99907226
vn -0.03223374 -0.028563 -0.99907214
vn -0.03223625 -0.02856581 -0.99907198
vn -0.03223241 -0.02856546 -0.99907211
vn -0.03223362 -0.02856449 -0.9990721
vn -0.0322335 -0.02856451 -0.9990721
vn -0.03223198 -0.02856433 -0.99907216
vn -0.03223678 -0.02855918 -0.99907215
vn -0.03223384 -0.02855797 -0.99907228
vn -0.03223472 -0.02856545 -0.99907204
vn -0.03223311 -0.02856456 -0.99907212
vn -0.03223312 -0.02856456 -0.99907212
vn -0.03223348 -0.02856471 -0.9990721
vn -0.03223399 -0.02856492 -0.99907208
vn -0.03223335 -0.02856317 -0.99907215
vn -0.03224251 -0.02856725 -0.99907174
vn -0.03223395 -0.02856341 -0.99907212
vn -0.03223379 -0.02856366 -0.99907212
vn -0.97695504 -0.19558294 -0.08547614
vn -0.976955 -0.19558328 -0.08547573
vn -0.75066693 -0.65740779 -0.06568219
vn -0.99547013 0.03813003 -0.0870938
vn -0.97705301 0.19509057 -0.0854815
vn -0.97705309 0.19509038 -0.08548098
vn -0.93423073 0.3471781 -0.08173313
vn -0.93423036 0.34717884 -0.08173422
vn -0.91311356 0.39980247 -0.07988492
vn -0.91311344 0.39980267 -0.07988535
vn -0.15265598 0.98797924 0.02435506
vn -0.13080989 0.99134152 -0.01143513
vn 0.19434002 0.98078667 0.01701361
vn 0.19435028 0.9807849 0.01699841
vn 0.5150189 0.85599401 0.04505331
vn 0.51501856 0.85599417 0.04505389
vn 0.99602239 0.01860146 0.08714001
vn 0.99602255 0.01860064 0.08713833
vn 0.99547044 -0.03812918 0.08709057
vn 0.99547042 -0.03812889 0.08709098
vn 0.97705316 -0.19508995 0.08548122
vn 0.97705317 -0.19509029 0.08548028
vn 0.93423053 -0.34717829 0.08173459
vn 0.8280208 -0.55599773 0.07244363
vn 0.82802184 -0.55599582 0.07244638
vn 0.44290585 -0.89573004 0.03875703
vn 0.44290604 -0.89572993 0.03875739
vn -0.19434619 -0.9807858 -0.01699351
vn -0.19435058 -0.98078459 -0.01701313
vn -0.08715817 8.8e-7 0.99619449
vn -0.08714129 -0.00000545 0.99619596
vn -0.08715385 -0.00000142 0.99619486
vn -0.08715427 -0.00000143 0.99619483
vn -0.08716167 6.8e-7 0.99619418
vn -0.08715341 8.3e-7 0.9961949
vn -0.0871528 5.7e-7 0.99619496
vn -0.08713999 -0.0000013 0.99619608
vn -0.08715332 -0.00000267 0.99619491
vn -0.08716466 0.00000363 0.99619392
vn -0.08716476 0.00000311 0.99619391
vn -0.08715428 -0.00000148 0.99619483
vn -0.08715426 -0.00000135 0.99619483
vn -0.08715327 -0.00000178 0.99619491
vn -0.08716168 6.3e-7 0.99619418
vn -0.08714045 -0.0000036 0.99619604
vn -0.0871409 -0.00000347 0.996196
vn -0.08715398 4e-8 0.99619485
vn -0.08715105 3.8e-7 0.99619511
vn -0.08715578 1.5e-7 0.99619469
vn -0.08715603 4e-8 0.99619467
vn -0.08715883 -6.5e-7 0.99619443
vn -0.08715275 7.1e-7 0.99619496
vn -0.0871547 -0.00000238 0.99619479
vn -0.08715724 -0.0000014 0.99619457
vn -0.08715599 0.00000136 0.99619468
vn -0.08715579 8e-8 0.99619469
vn -0.08715466 0.00000234 0.99619479
vn -0.08715457 0.00000232 0.9961948
vn -0.08715513 -5e-8 0.99619475
vn -0.08715128 -7.7e-7 0.99619509
vn -0.08715237 0.00000213 0.99619499
vn -0.087156 1.7e-7 0.99619468
vn -0.08715498 0.00000265 0.99619477
vn -0.08715869 4e-8 0.99619444
vn -0.08715834 0 0.99619447
vn 0.08714947 9.3e-7 -0.99619525
vn 0.08715816 -0.00000271 -0.99619449
vn 0.08715359 -8.3e-7 -0.99619489
vn 0.08715699 1e-7 -0.99619459
vn 0.08715403 0.0000014 -0.99619485
vn 0.08715141 0.00000142 -0.99619508
vn 0.07194295 0.0056491 -0.99739275
vn 0.08715105 -3.8e-7 -0.99619511
vn 0.09548433 0.00094534 -0.99543048
vn 0.09498744 -0.00156564 -0.99547724
vn 0.08682387 -0.00171942 -0.99622219
vn 0.08716459 -6.7e-7 -0.99619392
vn 0.08715094 -9.3e-7 -0.99619512
vn 0.08715698 5e-8 -0.99619459
vn 0.07118481 0.00182761 -0.99746147
vn 0.08715869 -4e-8 -0.99619444
vn 0.08715377 8e-8 -0.99619487
vn 0.08715678 -0.0000016 -0.99619461
vn 0.0871558 -2.5e-7 -0.99619469
vn 0.08715571 -1.5e-7 -0.9961947
vn 0.08714975 0.00000238 -0.99619522
vn 0.08715565 0.00000264 -0.99619471
vn 0.08715628 -0.00000159 -0.99619465
vn 0.08715584 -0.0000015 -0.99619469
vn 0.08715536 0.00000269 -0.99619473
vn 0.08715529 -7.2e-7 -0.99619474
vn 0.08715522 1.6e-7 -0.99619474
vn 0.08715936 -6.7e-7 -0.99619438
vn 0.08715618 -9e-7 -0.99619466
vn 0.08715771 0.00000314 -0.99619453
vn 0.08715128 7.7e-7 -0.99619509
vn 0.08715641 0.0000034 -0.99619464
vn 0.08715642 -2.5e-7 -0.99619464
vn 0.08714928 -2e-8 -0.99619526
vn 0 0 -1
vn 0 -0.11332464 -0.99355801
vn 0.04138493 -0.11035934 -0.99302976
vn 0 0 1
vn 0 0.11011119 0.99391927
vn -0.03906216 -1.9e-7 0.99923678
vn 0 -1 0
vn 0.62469468 -0.7808691 -7.4e-7
vn 0.92847779 -0.37138793 -0.00000111
vn 0.98837167 -0.15205735 -0.00000118
vn 1 0 -0.00000119
vn 0.98837166 0.1520574 0
vn 0.98837177 0.15205669 -0.00000118
vn 0.97854996 0.20600966 -0.00000117
vn 0.97854986 0.20601013 0
vn 0.35112473 0.9363287 0
vn 0.35112491 0.93632863 -4.2e-7
vn -0.01811316 0.99944385 -0.02799843
vn -0.0328499 0.9994603 0
vn -0.33065633 0.94361014 -0.01631844
vn -0.33742618 0.94135199 0.00000764
vn -0.97854996 0.20600966 0.00002216
vn -0.98837166 0.1520574 0.00002239
vn -0.98837199 0.15205528 0.00002592
vn -1 0 0.00002623
vn -0.98837167 -0.15205735 0.00002592
vn -0.98837189 -0.15205593 0.00002356
vn -0.62469468 -0.7808691 0.0000134
vn -0.6246965 -0.78086765 0.00000968
vn -0.92847779 -0.37138793 0.00002214
vn -0.9284784 -0.3713864 0.00001992
vn 0.69310328 0.19802951 0.69310328
vn 0 1 0
vn 0 0.27472113 0.96152395
vn -0.94850887 -0.2668094 -0.17071515
vn -0.94850872 -0.26681076 -0.17071385
vn 0.70632241 -0.04708816 0.70632241
vn 0.99778514 -0.06651901 0.00016618
vn 0.99777632 -0.06665139 0
vn -0.99785066 -0.06551706 -0.0012579
vn -0.99778516 -0.06651901 0
vn 0.70710678 0 -0.70710678
vn -0.001113 -0.06678342 -0.99776687
vn 0 -0.06590891 -0.99782564
vn -0.70632241 -0.04708816 0.70632241
vn 0.70631614 -0.04727599 -0.70631614
vn 0.70613295 -0.04747555 -0.70648591
vn 0 -0.06651901 0.99778516
vn 0.30708322 0.90077737 -0.30708309
vn -0.3070831 0.90077741 0.3070831
vn 0.32267395 0.94651018 0
vn -0.00000127 1 -0.00000127
vn -0.32267236 0.94651072 0
vn -0.32267383 0.94651022 -0.0000012
vn -0.30708183 0.90077827 -0.30708183
vn 0 0.94651072 -0.32267236
vn -0.0000012 0.94651022 -0.32267383
vn 0.30708322 0.90077737 0.30708309
vn 0 0.94651022 0.32267383
vn -0.69310328 0.19802951 -0.69310328
vn -0.96152395 0.27472113 0
vn 0.70710678 0 0.70710678
vn 1 0 0
vn 0.69310328 0.19802951 -0.69310328
vn 0 0.27472113 -0.96152395
vn -0.70710678 0 0.70710678
vn -0.69310328 -0.19802951 -0.69310328
vn 0.96152395 0.27472113 0
vn -0.70634289 -0.04646996 -0.70634289
vn 0.00003338 -0.99986115 -0.01666346
vn 0 -0.9998612 -0.01666069
vn -0.70710678 0 -0.70710678
vn -1 0 0
vn -0.01666346 -0.99986115 0
vn -0.69310328 0.19802951 0.69310328
g cactus
usemtl officeCubical
f 1/1/1 2/2/1 3/3/1
f 2/2/2 4/4/2 3/3/2
f 5/5/3 6/6/3 7/7/3
f 6/6/4 8/8/4 7/7/4
f 9/9/5 5/10/5 10/11/5
f 5/10/6 7/12/6 10/11/6
f 11/13/7 9/14/7 12/15/7
f 9/14/7 10/16/7 12/15/7
f 13/17/8 11/18/8 14/19/8
f 11/18/9 12/20/9 14/19/9
f 15/21/10 13/22/10 16/23/10
f 13/22/11 14/24/11 16/23/11
f 16/21/12 17/22/12 15/23/12
f 17/22/13 18/24/13 15/23/13
f 17/21/14 19/22/14 18/23/14
f 19/22/15 20/24/15 18/23/15
f 19/17/16 21/18/16 20/19/16
f 21/18/17 22/20/17 20/19/17
f 21/13/18 23/14/18 22/15/18
f 23/14/18 24/16/18 22/15/18
f 23/9/19 25/10/19 24/11/19
f 25/10/20 26/12/20 24/11/20
f 25/5/21 27/6/21 26/7/21
f 27/6/22 28/8/22 26/7/22
f 27/25/23 29/26/23 28/27/23
f 29/26/24 30/28/24 28/27/24
f 29/1/25 31/2/25 30/3/25
f 31/2/26 32/4/26 30/3/26
f 31/29/27 4/30/27 32/31/27
f 4/30/28 2/32/28 32/31/28
f 33/33/29 34/34/29 25/35/29
f 34/34/30 35/36/30 25/35/30
f 21/37/31 36/38/31 33/33/31
f 36/38/32 34/34/32 33/33/32
f 14/39/33 12/40/33 37/41/33
f 38/42/34 8/43/34 39/44/34
f 38/42/35 7/45/35 8/43/35
f 40/46/36 7/45/36 38/42/36
f 40/46/37 41/47/37 7/45/37
f 37/41/38 41/47/38 40/46/38
f 37/41/39 12/48/39 41/47/39
f 19/49/40 36/38/40 21/50/40
f 25/35/41 35/36/41 27/51/41
f 35/36/42 42/52/42 27/51/42
f 19/49/43 14/39/43 42/52/43
f 14/39/44 39/44/44 42/52/44
f 17/53/45 16/54/45 43/55/45
f 16/54/46 44/56/46 43/55/46
f 16/54/47 14/57/47 44/58/47
f 17/53/48 43/59/48 19/60/48
f 45/61/49 46/62/49 31/63/49
f 46/62/50 4/64/50 31/63/50
f 46/62/51 3/65/51 4/64/51
f 29/66/52 45/61/52 31/63/52
f 27/51/53 42/52/53 29/66/53
f 39/44/54 8/43/54 3/65/54
f 42/52/55 39/44/55 29/66/55
f 39/44/56 3/65/56 29/66/56
f 47/33/57 48/34/57 5/35/57
f 48/34/58 49/36/58 5/35/58
f 11/37/59 50/38/59 47/33/59
f 50/38/60 48/34/60 47/33/60
f 20/39/61 22/40/61 51/41/61
f 52/42/62 28/43/62 53/44/62
f 52/42/63 26/45/63 28/43/63
f 54/46/64 26/45/64 52/42/64
f 54/46/65 55/47/65 26/45/65
f 51/41/66 55/47/66 54/46/66
f 51/41/67 22/48/67 55/47/67
f 13/49/68 50/38/68 11/50/68
f 5/35/69 49/36/69 6/51/69
f 49/36/70 56/52/70 6/51/70
f 13/49/71 20/39/71 56/52/71
f 20/39/72 53/44/72 56/52/72
f 15/53/73 18/54/73 57/55/73
f 18/54/74 58/56/74 57/55/74
f 18/54/75 20/57/75 58/58/75
f 15/53/76 57/59/76 13/60/76
f 59/61/77 60/62/77 2/63/77
f 60/62/78 32/64/78 2/63/78
f 60/62/79 30/65/79 32/64/79
f 1/66/80 59/61/80 2/63/80
f 6/51/81 56/52/81 1/66/81
f 53/44/82 28/43/82 30/65/82
f 56/52/83 53/44/83 1/66/83
f 53/44/84 30/65/84 1/66/84
f 61/67/85 62/68/85 63/69/85
f 62/68/85 64/70/85 63/69/85
f 62/71/86 65/72/86 64/73/86
f 65/72/87 66/74/87 64/73/87
f 67/75/88 61/76/88 68/77/88
f 61/76/89 63/78/89 68/77/89
f 69/79/90 67/80/90 70/81/90
f 67/80/91 68/82/91 70/81/91
f 71/83/92 69/84/92 72/85/92
f 69/84/93 70/86/93 72/85/93
f 73/87/94 71/68/94 74/88/94
f 71/68/95 72/70/95 74/88/95
f 75/89/96 73/90/96 76/91/96
f 73/90/97 74/92/97 76/91/97
f 76/89/98 77/90/98 75/91/98
f 77/90/99 78/92/99 75/91/99
f 77/89/100 79/90/100 78/91/100
f 79/90/101 80/92/101 78/91/101
f 79/87/102 81/68/102 80/88/102
f 81/68/103 82/70/103 80/88/103
f 81/83/104 83/84/104 82/85/104
f 83/84/105 84/86/105 82/85/105
f 83/79/106 85/80/106 84/81/106
f 85/80/106 86/82/106 84/81/106
f 85/75/107 87/76/107 86/77/107
f 87/76/107 88/78/107 86/77/107
f 87/67/108 89/68/108 88/69/108
f 89/68/109 90/70/109 88/69/109
f 89/71/110 91/72/110 90/73/110
f 91/72/111 92/74/111 90/73/111
f 91/93/112 66/94/112 92/95/112
f 66/94/113 65/96/113 92/95/113
f 93/97/114 94/98/114 85/99/114
f 94/98/115 95/100/115 85/99/115
f 81/101/116 96/102/116 93/97/116
f 96/102/117 94/98/117 93/97/117
f 74/103/118 72/104/118 97/105/118
f 98/106/119 63/107/119 99/108/119
f 98/106/120 68/109/120 63/107/120
f 100/110/121 68/109/121 98/106/121
f 100/110/122 101/111/122 68/109/122
f 97/105/123 101/111/123 100/110/123
f 97/105/124 72/112/124 101/111/124
f 79/113/125 96/102/125 81/114/125
f 85/99/126 95/100/126 87/115/126
f 95/100/127 102/116/127 87/115/127
f 79/113/128 74/103/128 102/116/128
f 74/103/129 99/108/129 102/116/129
f 77/117/130 76/118/130 103/119/130
f 76/118/131 104/120/131 103/119/131
f 76/118/132 74/121/132 104/122/132
f 77/117/133 103/123/133 79/124/133
f 105/125/134 106/126/134 91/127/134
f 106/126/135 66/128/135 91/127/135
f 106/126/136 64/129/136 66/128/136
f 89/130/137 105/125/137 91/127/137
f 87/115/138 102/116/138 89/130/138
f 99/108/139 63/107/139 64/129/139
f 102/116/140 99/108/140 89/130/140
f 99/108/141 64/129/141 89/130/141
f 107/97/142 108/98/142 67/99/142
f 108/98/143 109/100/143 67/99/143
f 71/101/144 110/102/144 107/97/144
f 110/102/145 108/98/145 107/97/145
f 80/103/146 82/104/146 111/105/146
f 112/106/147 88/107/147 113/108/147
f 112/106/148 86/109/148 88/107/148
f 114/110/149 86/109/149 112/106/149
f 114/110/150 115/111/150 86/109/150
f 111/105/151 115/111/151 114/110/151
f 111/105/152 82/112/152 115/111/152
f 73/113/153 110/102/153 71/114/153
f 67/99/154 109/100/154 61/115/154
f 109/100/155 116/116/155 61/115/155
f 73/113/156 80/103/156 116/116/156
f 80/103/157 113/108/157 116/116/157
f 75/117/158 78/118/158 117/119/158
f 78/118/159 118/120/159 117/119/159
f 78/118/160 80/121/160 118/122/160
f 75/117/161 117/123/161 73/124/161
f 119/125/162 120/126/162 65/127/162
f 120/126/163 92/128/163 65/127/163
f 120/126/164 90/129/164 92/128/164
f 62/130/165 119/125/165 65/127/165
f 61/115/166 116/116/166 62/130/166
f 113/108/167 88/107/167 90/129/167
f 116/116/168 113/108/168 62/130/168
f 113/108/169 90/129/169 62/130/169
f 121/67/170 122/68/170 123/69/170
f 122/68/171 124/70/171 123/69/171
f 122/71/172 125/72/172 124/73/172
f 125/72/172 126/74/172 124/73/172
f 127/75/173 121/76/173 128/77/173
f 121/76/173 123/78/173 128/77/173
f 129/79/174 127/80/174 130/81/174
f 127/80/175 128/82/175 130/81/175
f 131/83/176 129/84/176 132/85/176
f 129/84/177 130/86/177 132/85/177
f 133/87/178 131/68/178 134/88/178
f 131/68/179 132/70/179 134/88/179
f 135/89/180 133/90/180 136/91/180
f 133/90/181 134/92/181 136/91/181
f 136/89/182 137/90/182 135/91/182
f 137/90/183 138/92/183 135/91/183
f 137/89/184 139/90/184 138/91/184
f 139/90/185 140/92/185 138/91/185
f 139/87/186 141/68/186 140/88/186
f 141/68/187 142/70/187 140/88/187
f 141/83/188 143/84/188 142/85/188
f 143/84/189 144/86/189 142/85/189
f 143/79/190 145/80/190 144/81/190
f 145/80/191 146/82/191 144/81/191
f 145/75/192 147/76/192 146/77/192
f 147/76/192 148/78/192 146/77/192
f 147/67/193 149/68/193 148/69/193
f 149/68/194 150/70/194 148/69/194
f 149/71/195 151/72/195 150/73/195
f 151/72/196 152/74/196 150/73/196
f 151/93/197 126/94/197 152/95/197
f 126/94/198 125/96/198 152/95/198
f 145/131/199 153/132/199 147/133/199
f 132/134/200 130/135/200 154/136/200
f 155/97/201 156/98/201 153/132/201
f 156/98/202 157/100/202 153/132/202
f 141/101/203 158/102/203 155/97/203
f 158/102/204 156/98/204 155/97/204
f 134/103/205 132/104/205 159/105/205
f 160/137/206 128/138/206 123/139/206
f 161/106/207 123/107/207 162/108/207
f 161/106/208 160/137/208 123/107/208
f 163/110/209 160/137/209 161/106/209
f 163/110/210 164/111/210 160/137/210
f 159/105/211 164/111/211 163/110/211
f 159/105/212 132/134/212 164/111/212
f 139/113/213 158/102/213 141/114/213
f 154/136/214 128/138/214 160/137/214
f 154/136/215 130/135/215 128/138/215
f 153/132/216 157/100/216 147/133/216
f 157/100/217 165/116/217 147/133/217
f 139/113/218 134/103/218 165/116/218
f 134/103/219 162/108/219 165/116/219
f 141/101/220 166/140/220 143/141/220
f 137/117/221 136/118/221 167/119/221
f 136/118/222 168/120/222 167/119/222
f 136/118/223 134/121/223 168/122/223
f 137/117/224 167/123/224 139/124/224
f 169/125/225 170/126/225 151/127/225
f 170/126/226 126/128/226 151/127/226
f 170/126/227 124/129/227 126/128/227
f 149/130/228 169/125/228 151/127/228
f 147/133/229 165/116/229 149/130/229
f 162/108/230 123/107/230 124/129/230
f 165/116/231 162/108/231 149/130/231
f 162/108/232 124/129/232 149/130/232
f 143/141/233 166/140/233 145/131/233
f 166/140/234 153/132/234 145/131/234
f 127/131/235 171/132/235 121/133/235
f 142/134/236 144/135/236 172/136/236
f 173/97/237 174/98/237 171/132/237
f 174/98/237 175/100/237 171/132/237
f 131/101/238 176/102/238 173/97/238
f 176/102/239 174/98/239 173/97/239
f 140/103/240 142/104/240 177/105/240
f 178/137/241 146/138/241 148/139/241
f 179/106/242 148/107/242 180/108/242
f 179/106/243 178/109/243 148/107/243
f 181/110/244 178/109/244 179/106/244
f 181/110/245 182/111/245 178/109/245
f 177/105/246 182/111/246 181/110/246
f 177/105/247 142/134/247 182/111/247
f 133/113/248 176/102/248 131/114/248
f 172/136/249 146/138/249 178/109/249
f 172/136/250 144/135/250 146/138/250
f 171/132/251 175/100/251 121/133/251
f 175/100/252 183/116/252 121/133/252
f 133/113/253 140/103/253 183/116/253
f 140/103/254 180/108/254 183/116/254
f 131/101/255 184/140/255 129/141/255
f 135/117/256 138/118/256 185/119/256
f 138/118/257 186/120/257 185/119/257
f 138/118/258 140/121/258 186/122/258
f 135/117/259 185/123/259 133/124/259
f 187/125/260 188/126/260 125/127/260
f 188/126/261 152/128/261 125/127/261
f 188/126/262 150/129/262 152/128/262
f 122/130/263 187/125/263 125/127/263
f 121/133/264 183/116/264 122/130/264
f 180/108/265 148/107/265 150/129/265
f 183/116/266 180/108/266 122/130/266
f 180/108/267 150/129/267 122/130/267
f 129/141/268 184/140/268 127/131/268
f 184/140/268 171/132/268 127/131/268
f 189/142/269 190/143/269 191/144/269
f 190/143/269 192/145/269 191/144/269
f 193/146/269 194/147/269 195/148/269
f 194/147/269 196/149/269 195/148/269
f 194/147/269 197/150/269 196/149/269
f 198/151/269 193/146/269 195/148/269
f 195/148/269 199/152/269 200/153/269
f 201/154/269 196/149/269 202/155/269
f 199/152/269 201/154/269 200/153/269
f 201/154/269 202/155/269 200/153/269
f 92/156/270 203/157/270 204/158/270
f 205/159/269 206/160/269 207/161/269
f 92/156/271 205/159/271 203/162/271
f 205/159/269 207/163/269 203/162/269
f 208/164/269 190/143/269 189/142/269
f 204/165/269 206/166/269 193/146/269
f 206/166/269 194/147/269 193/146/269
f 192/145/269 209/167/269 198/151/269
f 209/167/269 193/146/269 198/151/269
f 210/168/269 211/169/269 212/170/269
f 210/168/269 213/171/269 211/169/269
f 204/165/269 214/172/269 208/173/269
f 215/174/269 216/175/269 217/176/269
f 215/174/269 218/177/269 216/175/269
f 217/176/269 212/170/269 219/178/269
f 217/176/269 216/175/269 212/170/269
f 219/178/269 197/150/269 194/147/269
f 219/178/269 212/170/269 197/150/269
f 212/170/269 211/169/269 197/179/269
f 206/166/269 218/180/269 215/174/269
f 208/164/269 214/172/269 220/181/269
f 214/172/269 221/182/269 220/181/269
f 220/181/269 221/182/269 192/145/269
f 221/182/269 209/167/269 192/145/269
f 218/177/269 213/171/269 210/168/269
f 191/144/269 192/145/269 198/151/269
f 222/142/272 223/143/272 224/144/272
f 223/143/272 225/145/272 224/144/272
f 226/146/272 227/147/272 228/148/272
f 227/147/272 229/149/272 228/148/272
f 227/147/272 230/150/272 229/149/272
f 231/151/272 226/146/272 228/148/272
f 228/148/272 232/152/272 233/153/272
f 234/154/272 229/149/272 235/155/272
f 232/152/272 234/154/272 233/153/272
f 234/154/272 235/155/272 233/153/272
f 236/156/272 237/157/272 238/158/272
f 91/159/273 239/160/273 240/161/273
f 236/156/274 91/159/274 237/162/274
f 91/159/273 240/163/273 237/162/273
f 241/164/272 223/143/272 222/142/272
f 238/165/272 239/166/272 226/146/272
f 239/166/272 227/147/272 226/146/272
f 225/145/272 242/167/272 231/151/272
f 242/167/272 226/146/272 231/151/272
f 243/168/272 244/169/272 245/170/272
f 243/168/272 246/171/272 244/169/272
f 238/165/272 247/172/272 241/173/272
f 248/174/272 249/175/272 250/176/272
f 248/174/272 251/177/272 249/175/272
f 250/176/272 245/170/272 252/178/272
f 250/176/272 249/175/272 245/170/272
f 252/178/272 230/150/272 227/147/272
f 252/178/272 245/170/272 230/150/272
f 245/170/272 244/169/272 230/179/272
f 239/166/272 251/180/272 248/174/272
f 241/164/272 247/172/272 253/181/272
f 247/172/272 254/182/272 253/181/272
f 253/181/272 254/182/272 225/145/272
f 254/182/272 242/167/272 225/145/272
f 251/177/272 246/171/272 243/168/272
f 224/144/272 225/145/272 231/151/272
f 233/183/275 235/184/275 202/185/275
f 235/184/275 200/186/275 202/185/275
f 228/187/276 233/188/276 196/189/276
f 233/188/276 202/190/276 196/189/276
f 231/191/277 228/192/277 197/193/277
f 228/192/277 196/194/277 197/193/277
f 224/195/278 231/196/278 211/197/278
f 231/196/278 197/198/278 211/197/278
f 222/199/279 224/200/279 213/201/279
f 224/200/279 211/202/279 213/201/279
f 241/203/280 222/204/280 218/205/280
f 222/204/281 213/206/281 218/205/281
f 238/207/282 241/192/282 206/208/282
f 241/192/283 218/194/283 206/208/283
f 236/209/284 238/210/284 205/211/284
f 238/210/285 206/212/285 205/211/285
f 91/209/286 236/210/286 92/211/286
f 236/210/287 205/212/287 92/211/287
f 92/209/288 204/210/288 91/211/288
f 204/210/289 239/212/289 91/211/289
f 204/207/290 208/192/290 239/208/290
f 208/192/290 251/194/290 239/208/290
f 208/203/291 189/204/291 251/205/291
f 189/204/292 246/206/292 251/205/292
f 189/199/293 191/200/293 246/201/293
f 191/200/293 244/202/293 246/201/293
f 191/195/294 198/196/294 244/197/294
f 198/196/295 230/198/295 244/197/295
f 195/187/296 200/188/296 229/189/296
f 200/188/297 235/190/297 229/189/297
f 198/191/298 195/192/298 230/193/298
f 195/192/299 229/194/299 230/193/299
f 255/213/300 256/214/300 257/215/300
f 256/214/300 258/216/300 257/215/300
f 259/215/301 260/214/301 261/213/301
f 259/215/301 262/216/301 260/214/301
f 263/215/269 262/214/269 264/213/269
f 263/215/269 265/216/269 262/214/269
f 266/213/275 265/214/275 267/215/275
f 265/214/275 268/216/275 267/215/275
f 269/215/301 263/214/301 270/213/301
f 269/215/301 271/216/301 263/214/301
f 272/213/275 273/214/275 259/215/275
f 273/214/275 274/216/275 259/215/275
f 257/213/302 258/214/302 270/215/302
f 258/214/302 275/216/302 270/215/302
f 6/25/303 1/26/303 8/27/303
f 1/26/304 3/28/304 8/27/304
f 276/217/305 277/213/305 278/218/305
f 277/213/305 279/215/305 278/218/305
f 278/217/306 279/213/306 267/218/306
f 279/213/307 280/215/307 267/218/307
f 261/217/308 281/213/308 282/218/308
f 281/213/309 283/215/309 282/218/309
f 264/213/301 257/214/301 263/215/301
f 257/214/301 270/216/301 263/215/301
f 271/215/310 265/214/310 263/213/310
f 271/215/310 268/216/310 265/214/310
f 266/217/311 284/213/311 259/218/311
f 284/213/312 285/215/312 259/218/312
f 282/217/313 283/213/313 286/218/313
f 283/213/313 287/215/313 286/218/313
f 267/217/314 280/213/314 266/218/314
f 280/213/315 284/215/315 266/218/315
f 286/217/316 287/213/316 276/218/316
f 287/213/316 277/215/316 276/218/316
f 288/219/317 289/220/317 290/221/317
f 291/222/318 292/223/318 293/224/318
f 294/225/319 289/220/319 288/219/319
f 294/225/319 295/226/319 289/220/319
f 292/223/320 288/219/320 296/227/320
f 292/223/301 294/225/301 288/219/301
f 293/224/321 296/227/321 297/228/321
f 293/224/322 292/223/322 296/227/322
f 297/228/323 296/227/323 298/229/323
f 296/227/324 290/221/324 298/229/324
f 296/227/325 288/219/325 290/221/325
f 299/230/326 295/226/326 294/225/326
f 291/222/327 294/225/327 292/223/327
f 291/222/327 299/230/327 294/225/327
f 300/213/328 301/214/328 302/215/328
f 301/214/328 303/216/328 302/215/328
f 269/213/329 304/214/329 300/215/329
f 304/214/329 301/216/329 300/215/329
f 278/213/275 305/214/275 276/215/275
f 305/214/275 306/216/275 276/215/275
f 305/215/275 267/214/275 268/213/275
f 305/215/275 278/216/275 267/214/275
f 302/215/301 307/214/301 300/213/301
f 302/215/301 308/216/301 307/214/301
f 271/213/301 269/214/301 307/215/301
f 269/214/301 300/216/301 307/215/301
f 308/215/330 305/214/330 307/213/330
f 308/215/330 306/216/330 305/214/330
f 307/215/331 268/214/331 271/213/331
f 307/215/331 305/216/331 268/214/331
f 309/213/332 310/214/332 311/215/332
f 310/214/332 312/216/332 311/215/332
f 302/213/333 303/214/333 309/215/333
f 303/214/333 310/216/333 309/215/333
f 286/213/275 313/214/275 282/215/275
f 313/214/275 314/216/275 282/215/275
f 313/215/275 276/214/275 306/213/275
f 313/215/275 286/216/275 276/214/275
f 311/215/301 315/214/301 309/213/301
f 311/215/301 316/216/301 315/214/301
f 308/213/301 302/214/301 315/215/301
f 302/214/301 309/216/301 315/215/301
f 316/215/334 313/214/334 315/213/334
f 316/215/334 314/216/334 313/214/334
f 315/215/272 306/214/272 308/213/272
f 315/215/272 313/216/272 306/214/272
f 257/215/335 256/214/335 255/213/335
f 257/215/335 258/216/335 256/214/335
f 311/213/336 312/214/336 255/215/336
f 312/214/336 256/216/336 255/215/336
f 259/217/337 285/213/337 261/218/337
f 285/213/337 281/215/337 261/218/337
f 260/215/338 282/214/338 314/213/338
f 260/215/339 261/216/339 282/214/339
f 257/215/301 317/214/301 255/213/301
f 257/215/301 264/216/301 317/214/301
f 316/213/301 311/214/301 317/215/301
f 311/214/301 255/216/301 317/215/301
f 264/215/340 260/214/340 317/213/340
f 264/215/340 262/216/340 260/214/340
f 317/215/341 314/214/341 316/213/341
f 317/215/341 260/216/341 314/214/341
f 265/215/342 259/214/342 262/213/342
f 265/215/342 266/216/342 259/214/342
f 271/215/310 265/214/310 263/213/310
f 271/215/310 268/216/310 265/214/310
f 270/213/343 275/214/343 269/215/343
f 275/214/343 304/216/343 269/215/343
