mtllib material.mtl
o Default
v -0.899497926235199 0.6937500238418579 0.5299858450889587
v -0.3838992416858673 1.2937500476837158 1.0455845594406128
v -0.899497926235199 1.2937500476837158 0.5299858450889587
v -0.3838992416858673 0.6937500238418579 1.0455845594406128
v -0.19975686073303223 1.2937500476837158 0.8614421486854553
v -0.7153555750846863 1.2937500476837158 0.34584346413612366
v -0.7153555750846863 0.6937500238418579 0.34584346413612366
v -0.19975686073303223 0.6937500238418579 0.8614421486854553
v -0.6785565614700317 0.7437499761581421 0.3826424777507782
v -0.38392868638038635 0.84375 0.08801466226577759
v -0.23661479353904724 0.7437499761581421 0.8245842456817627
v 0.05801303684711456 0.84375 0.5299564003944397
v 0.0580424927175045 1.193750023841858 0.5299859046936035
v -0.236585333943367 1.243749976158142 0.8246136903762817
v -0.6785270571708679 1.243749976158142 0.38267195224761963
v -0.3838992416858673 1.193750023841858 0.08804412186145782
v -0.43766871094703674 1.118749976158142 0.14107711613178253
v -0.5113256573677063 0.9187499284744263 0.21473415195941925
v -0.5113256573677063 1.118749976158142 0.21473415195941925
v -0.43766871094703674 0.9187499284744263 0.14107711613178253
v -0.06864777207374573 1.118749976158142 0.6574119925498962
v -0.06864777207374573 0.9187499284744263 0.6574119925498962
v 0.005009191110730171 1.118749976158142 0.5837550759315491
v 0.005009191110730171 0.9187499284744263 0.5837550759315491
v -0.2362171858549118 1.0437500476837158 0.23498983681201935
v -0.0889032632112503 1.0437500476837158 0.38230380415916443
v -0.2362171858549118 0.9437500238418579 0.23498983681201935
v -0.0889032632112503 0.9437500238418579 0.38230380415916443
vt 0.3125 0.82421875
vt 0.453125 0.9375
vt 0.3125 0.9375
vt 0.453125 0.82421875
vt 0.5 0.8984375
vt 0.609375 0.9375
vt 0.5 0.9375
vt 0.609375 0.8984375
vt 0.5 0.78125
vt 0.546875 0.875
vt 0.5 0.875
vt 0.546875 0.78125
vt 0.71875 0.75
vt 0.71875 0.671875
vt 0.625 0.75
vt 0.625 0.671875
vt 0.5 0.6640625
vt 0.5703125 0.75
vt 0.5 0.75
vt 0.5703125 0.6640625
vt 0.5625 0.875
vt 0.6484375 0.875
vt 0.5625 0.8203125
vt 0.6484375 0.8203125
vt 0.55859375 0.77734375
vt 0.609375 0.8125
vt 0.55859375 0.8125
vt 0.609375 0.77734375
vt 0.3125 0.75
vt 0.453125 0.75
vt 0.3125 0.63671875
vt 0.453125 0.63671875
vn -0.7071068 0 0.70710676
vn 0 1 0
vn 0 -1 0
vn -0.70710684 0 -0.70710672
vn 0.70710684 0 0.70710672
vn 0.16501962 -0.97238729 -0.16501962
vn 0.16501963 -0.97238729 -0.16501963
vn 0.70709966 -0.0000833 0.7071139
vn 0.70712701 -0.00011912 0.70708654
vn -0.70709972 0.00008341 -0.70711384
vn -0.7071269 0.000119 -0.70708665
vn 0.70710682 3e-8 -0.70710674
vn 0.70710679 1e-7 -0.70710677
vn -0.70710721 0 -0.70710635
vn 0.70710676 0 -0.7071068
vn 0.08424832 0.99287685 -0.08424831
vn 0.08424832 0.99287685 -0.08424832
vn 0.70710656 0 0.707107
vn 0.70710689 0 -0.70710667
g monitor
usemtl officeCubical
f 1/1/1 2/2/1 3/3/1
f 1/1/1 4/4/1 2/2/1
f 3/5/2 5/6/2 6/7/2
f 3/5/2 2/8/2 5/6/2
f 7/7/3 8/6/3 1/5/3
f 8/6/3 4/8/3 1/5/3
f 7/9/4 3/10/4 6/11/4
f 7/9/4 1/12/4 3/10/4
f 5/11/5 2/10/5 8/9/5
f 2/10/5 4/12/5 8/9/5
f 9/13/6 10/14/6 11/15/6
f 10/14/7 12/16/7 11/15/7
f 11/17/8 13/18/8 14/19/8
f 11/17/9 12/20/9 13/18/9
f 15/19/10 16/18/10 9/17/10
f 16/18/11 10/20/11 9/17/11
f 16/21/12 13/22/12 10/23/12
f 13/22/13 12/24/13 10/23/13
f 17/25/14 18/26/14 19/27/14
f 17/25/14 20/28/14 18/26/14
f 6/29/15 5/30/15 7/31/15
f 5/30/15 8/32/15 7/31/15
f 14/15/16 16/14/16 15/13/16
f 14/15/17 13/16/17 16/14/17
f 21/27/18 22/26/18 23/25/18
f 22/26/18 24/28/18 23/25/18
f 25/27/19 26/26/19 27/25/19
f 26/26/19 28/28/19 27/25/19
