mtllib material.mtl
o Default
v 0.0625 0 -0.0625
v -0.0625 0 -0.0625
v 0.0625 0 0
v -0.0625 0 0
v 0 0 0
v 0 0 0.0625
v -0.0625 0 0.0625
v 2.3125 0 0.0625
v 2.3125 0 -0.0625
v 2.25 0 0.0625
v 2.25 0 -0.0625
v 2.25 0 0
v 2.1875 0 0
v 2.1875 0 -0.0625
v 2.25 0 2.25
v 2.3125 0 2.25
v 2.25 0 2.1875
v 2.3125 0 2.1875
v 2.1875 0 2.3125
v 2.3125 0 2.3125
v 2.1875 0 2.25
v 1.0625 0 2.3125
v 1.1875 0 2.3125
v 1.0625 0 2.25
v 1.1875 0 2.25
v 2.312350034713745 0 1.1876499652862549
v 2.312350034713745 0 1.0626499652862549
v 2.249850034713745 0 1.1876499652862549
v 2.249850034713745 0 1.0626499652862549
v -0.0001499652862548828 0 1.1876499652862549
v -0.0001499652862548828 0 1.0626499652862549
v -0.06264996528625488 0 1.1876499652862549
v -0.06264996528625488 0 1.0626499652862549
v 1.0625 0 0
v 1.1875 0 0
v 1.0625 0 -0.0625
v 1.1875 0 -0.0625
v 2.25 -2 1.000100016593933
v 2.3125 -2 0.00015000830171629786
v 2.25 -2 0.00015000830171629786
v 2.3125 -2 1.000100016593933
v 1.4375 -1.3123499155044556 1.0000499486923218
v 1.25 -1.3748499155044556 0.8125499486923218
v 1.4375 -1.3748499155044556 1.0000499486923218
v 1.25 -1.3123499155044556 0.8125499486923218
v 1.375 -1.3748499155044556 0.8125500679016113
v 1.5 -1.3748499155044556 1.1875500679016113
v 1.375 -1.3123499155044556 0.8125500679016113
v 1.5 -1.3123499155044556 1.1875500679016113
v 1.4375 -1.3123499155044556 0.8750500679016113
v 1.0625 -1.3748499155044556 0.7500500082969666
v 1.4375 -1.3748499155044556 0.8750500679016113
v 1.0625 -1.3123499155044556 0.7500500082969666
v 1.25 -1.3123499155044556 0.7500500082969666
v 0 -1.3748499155044556 0.7500500082969666
v 1.25 -1.3748499155044556 0.7500500082969666
v 0 -1.3123499155044556 0.7500500082969666
v 1.5 -1.375 0.75
v 1.5 -1.375 0.8125
v 1.4374499320983887 -1.375 0.8125500082969666
v 1.4999499320983887 -1.375 1.0000499486923218
v 1.5 -1.375 -0.00010003319039242342
v 0 -1.375 -0.00010003319039242342
v 2.25 -1.375 0.7500999569892883
v 2.25 -1.375 0.00009999999747378752
v 1.5 -1.375 2.25
v 2.25 -1.375 2.25
v 1.5 -1.3123499155044556 2.2500500679016113
v 1.5 -1.3123499155044556 1.0000499486923218
v 1.4374499320983887 -1.3125 0.8125500082969666
v 1.4999499320983887 -1.3125 0.8125500082969666
v 1.0625 -1 2.25
v 1.0625 -1 2.3125
v 1.0625 -2 2.25
v 1.0625 -2 2.3125
v -0.0625 -1 1.1875
v 0 -1 1.1875
v -0.0625 -2 1.1875
v 0 -2 1.1875
v -0.0625 -1 1.0625
v -0.0625 -2 1.0625
v 0 -1 1.0625
v 0 -2 1.0625
v 1.1875 -1 2.3125
v 1.1875 -2 2.3125
v 1.1875 -1 2.25
v 1.1875 -2 2.25
v 2.1875 -1 2.3125
v 2.1875 -2 2.3125
v 2.1875 -1 2.25
v 2.1875 -2 2.25
v -0.0625 -1 0.0625
v -0.0625 -2 0.0625
v 0 -1 0.0625
v 0 -2 0.0625
v -0.0625 -1 -0.0625
v -0.0625 -2 -0.0625
v 0.0625 -1 -0.06235000118613243
v 0.0625 -2 -0.06235000118613243
v 2.3125 -1 2.3125
v 2.3125 -2 2.3125
v 2.25 -1 2.25
v 2.25 -2 2.25
v 2.3125 -1 2.187649965286255
v 2.3125 -2 2.187649965286255
v 2.25 -1 2.187649965286255
v 2.25 -2 2.187649965286255
v 0 -1 0
v 0 -2 0
v 0.0625 -1 0.0001500000071246177
v 0.0625 -2 0.0001500000071246177
v 1.0625 -1 -0.00014993056538514793
v 1.0625 -1 -0.0626499280333519
v 1.0625 -2 -0.00014993056538514793
v 1.0625 -2 -0.0626499280333519
v 1.1875 -1 -0.00014993056538514793
v 1.1875 -1 -0.0626499280333519
v 1.1875 -2 -0.00014993056538514793
v 1.1875 -2 -0.0626499280333519
v 2.250149965286255 -1 1.0625
v 2.312649965286255 -1 1.0625
v 2.250149965286255 -2 1.0625
v 2.312649965286255 -2 1.0625
v 2.250149965286255 -2 1.1875
v 2.312649965286255 -1 1.1875
v 2.250149965286255 -1 1.1875
v 2.312649965286255 -2 1.1875
v 1.5 -1.3125 0.75
v 2.25 -1.3125 0.7501000165939331
v 2.25 -1.3125 2.25
v 1.5 -1.3125 -0.00010003319039242342
v 0 -1.3125 -0.00010003319039242342
v 2.25 -1.3125 0.00009999999747378752
v 2.3125 -1 -0.06235000118613243
v 2.3125 -1 0.06265000253915787
v 2.3125 -2 -0.06235000118613243
v 2.3125 -2 0.06265000253915787
v 2.1875 -1 -0.06235000118613243
v 2.1875 -2 -0.06235000118613243
v 2.25 -1 0.06265000253915787
v 2.25 -2 0.06265000253915787
v 2.25 -1 0.0001500000071246177
v 2.1875 -1 0.0001500000071246177
v 2.1875 -2 0.0001500000071246177
vt 0.1875 0.87890625
vt 0.1953125 0.87890625
vt 0.1875 0.875
vt 0.1953125 0.875
vt 0.0625 0.9375
vt 0.125 0.9375
vt 0.0625 0.93359375
vt 0.125 0.93359375
vt 0 0.9375
vt 0.00390625 1
vt 0 1
vt 0.00390625 0.9375
vt 0.11328125 0.77734375
vt 0.09765625 0.7734375
vt 0.11328125 0.7734375
vt 0.09765625 0.77734375
vt 0.11328125 0.8046875
vt 0.11328125 0.78125
vt 0.109375 0.8046875
vt 0.109375 0.78125
vt 0.1015625 0.703125
vt 0.10546875 0.6796875
vt 0.10546875 0.703125
vt 0.1015625 0.6796875
vt 0.1015625 0.75
vt 0.10546875 0.671875
vt 0.10546875 0.75
vt 0.1015625 0.671875
vt 0.11328125 0.75
vt 0.11328125 0.765625
vt 0.109375 0.75
vt 0.109375 0.765625
vt 0.125 0.76171875
vt 0.11328125 0.76171875
vt 0.125 0.765625
vt 0.13671875 0.765625
vt 0.109375 0.671875
vt 0.0625 0.765625
vt 0.0625 0.671875
vt 0.109375 0.8125
vt 0.0625 0.8125
vt 0.203125 0.765625
vt 0.203125 0.8125
vt 0.16796875 0.7734375
vt 0.08984375 0.76953125
vt 0.16796875 0.76953125
vt 0.08984375 0.7734375
vt 0.109375 0.73828125
vt 0.25 0.875
vt 0.25390625 0.9375
vt 0.25 0.9375
vt 0.25390625 0.875
vt 0.1953125 0.9375
vt 0.1875 0.9375
vt 0.0625 0.875
vt 0.125 0.875
vn 0 1 0
vn -0.70710678 0 0.70710678
vn -0.9486833 0 0.31622777
vn -0.3162279 0 0.94868325
vn 0 0 1
vn -0.00060034 -0.99999982 0
vn -0.00240327 -0.99999679 0.00080109
vn 0 -1 0
vn -0.00080066 -0.99999936 0.00080066
vn -0.00010006 -0.99999999 0
vn 0 -0.99999998 0.00020007
vn -1 -3e-8 0.00004006
vn -0.99999968 0.00079917 0
vn 0 0.99999968 -0.00080045
vn -1 0 0
vn 0 -0.00014997 0.99999999
vn -0.99999999 -0.00014997 0
vn 0.99999999 0.00014997 0
vn 1 0 0
vn 0 0 -1
vn -0.99999998 -0.00014994 -0.00014994
vn 0.99999998 0.00014994 0.00014994
vn 0 -0.00015 -0.99999999
vn 0.00119999 0 -0.99999928
vn 0 0.00015 0.99999999
vn -0.00239999 0 0.99999712
vn 0.00060034 0.99999982 0
vn 0.00060046 0.99999982 4.8e-7
vn 1e-8 0.99999999 -0.00010005
vn 0.00020011 0.99999998 0
vn 0.00010006 0.99999999 0
vn 0 0.99999998 -0.00020007
vn 0.00080066 0.99999936 -0.00080066
vn 0.99999996 0.00029993 0
vn 0.99999999 0 0.00014994
vn 0.99999994 0.00029995 -0.00014999
vn 0.99999999 2e-8 0.00014994
vn 0.99999999 0 -0.00014999
vn 0 0.00014993 -0.99999999
vn 0.00029993 -0.00015 -0.99999994
vn -0.00029993 0.00014993 -0.99999994
vn -0.00029993 0 -0.99999996
vn 0.00029993 0 -0.99999996
vn -0.99999994 -0.00029995 0.00014999
vn -0.99999999 -2e-8 -0.00014994
vn -0.99999999 0 -0.00014994
vn -0.99999996 -0.00029993 0
vn -0.99999999 0 0.00014999
vn -1.3e-7 1e-8 1
vn 0.00029993 -0.00014993 0.99999994
vn 0.00029993 0 0.99999996
vn 0 -0.00014993 0.99999999
vn -0.00029993 0.00015 0.99999994
vn -0.00029993 0 0.99999996
g cubical
usemtl officeCubical
f 1/1/1 2/2/1 3/3/1
f 2/2/1 4/4/1 3/3/1
f 5/1/1 4/2/1 6/3/1
f 4/2/1 7/4/1 6/3/1
f 8/1/1 9/2/1 10/3/1
f 9/2/1 11/4/1 10/3/1
f 12/1/1 11/2/1 13/3/1
f 11/2/1 14/4/1 13/3/1
f 15/1/1 16/2/1 17/3/1
f 16/2/1 18/4/1 17/3/1
f 19/1/1 20/2/1 21/3/1
f 20/2/1 16/4/1 21/3/1
f 22/1/1 23/2/1 24/3/1
f 23/2/1 25/4/1 24/3/1
f 26/1/1 27/2/1 28/3/1
f 27/2/1 29/4/1 28/3/1
f 30/1/1 31/2/1 32/3/1
f 31/2/1 33/4/1 32/3/1
f 34/1/1 35/2/1 36/3/1
f 35/2/1 37/4/1 36/3/1
f 21/5/1 25/6/1 19/7/1
f 25/6/1 23/8/1 19/7/1
f 31/5/1 6/6/1 33/7/1
f 6/6/1 7/8/1 33/7/1
f 3/5/1 34/6/1 1/7/1
f 34/6/1 36/8/1 1/7/1
f 35/5/1 13/6/1 37/7/1
f 13/6/1 14/8/1 37/7/1
f 28/5/1 17/6/1 26/7/1
f 17/6/1 18/8/1 26/7/1
f 10/5/1 29/6/1 8/7/1
f 29/6/1 27/8/1 8/7/1
f 38/9/1 39/10/1 40/11/1
f 38/9/1 41/12/1 39/10/1
f 42/13/2 43/14/2 44/15/2
f 42/13/2 45/16/2 43/14/2
f 46/17/3 47/18/3 48/19/3
f 47/18/3 49/20/3 48/19/3
f 50/21/4 51/22/4 52/23/4
f 50/21/4 53/24/4 51/22/4
f 54/25/5 55/26/5 56/27/5
f 54/25/5 57/28/5 55/26/5
f 56/29/6 58/30/6 43/31/6
f 58/30/6 59/32/6 43/31/6
f 44/33/7 60/34/7 61/35/7
f 60/34/8 59/30/8 61/35/8
f 43/29/9 60/34/9 44/33/9
f 44/33/7 61/35/7 47/36/7
f 58/32/10 55/37/10 62/38/10
f 55/37/11 63/39/11 62/38/11
f 62/38/8 64/40/8 58/32/8
f 62/38/8 65/41/8 64/40/8
f 58/32/8 64/40/8 66/42/8
f 64/40/8 67/43/8 66/42/8
f 68/44/12 61/45/12 66/46/12
f 68/44/13 69/47/13 61/45/13
f 51/48/8 56/29/8 43/31/8
f 69/35/14 70/34/14 42/33/14
f 69/35/14 71/30/14 70/34/14
f 72/49/15 22/50/15 24/51/15
f 72/49/15 73/52/15 22/50/15
f 74/49/15 73/50/15 72/51/15
f 74/49/15 75/52/15 73/50/15
f 76/49/16 30/50/16 32/51/16
f 76/49/16 77/52/16 30/50/16
f 78/49/5 77/50/5 76/51/5
f 78/49/5 79/52/5 77/50/5
f 80/3/17 32/53/17 33/54/17
f 80/3/17 76/4/17 32/53/17
f 81/3/15 76/53/15 80/54/15
f 81/3/15 78/4/15 76/53/15
f 31/54/18 77/4/18 82/3/18
f 31/54/18 30/53/18 77/4/18
f 82/54/19 79/4/19 83/3/19
f 82/54/19 77/53/19 79/4/19
f 73/3/5 23/53/5 22/54/5
f 73/3/5 84/4/5 23/53/5
f 75/3/5 84/53/5 73/54/5
f 75/3/5 85/4/5 84/53/5
f 24/54/20 25/53/20 72/3/20
f 25/53/20 86/4/20 72/3/20
f 72/54/20 86/53/20 74/3/20
f 86/53/20 87/4/20 74/3/20
f 84/55/5 19/6/5 23/5/5
f 84/55/5 88/56/5 19/6/5
f 85/55/5 88/6/5 84/5/5
f 85/55/5 89/56/5 88/6/5
f 25/5/20 21/6/20 86/55/20
f 21/6/20 90/56/20 86/55/20
f 86/5/20 90/6/20 87/55/20
f 90/6/20 91/56/20 87/55/20
f 33/5/21 7/6/21 80/55/21
f 7/6/15 92/56/15 80/55/15
f 93/55/15 80/6/15 92/5/15
f 93/55/15 81/56/15 80/6/15
f 82/55/22 6/6/22 31/5/22
f 82/55/19 94/56/19 6/6/19
f 94/5/19 82/6/19 95/55/19
f 82/6/19 83/56/19 95/55/19
f 96/49/15 7/50/15 2/51/15
f 96/49/15 92/52/15 7/50/15
f 97/49/15 92/50/15 96/51/15
f 97/49/15 93/52/15 92/50/15
f 98/49/23 2/50/23 1/51/23
f 98/49/24 96/52/24 2/50/24
f 99/49/24 96/50/24 98/51/24
f 99/49/24 97/52/24 96/50/24
f 88/49/5 20/50/5 19/51/5
f 88/49/5 100/52/5 20/50/5
f 89/49/5 100/50/5 88/51/5
f 89/49/5 101/52/5 100/50/5
f 21/51/20 15/50/20 90/49/20
f 15/50/20 102/52/20 90/49/20
f 90/51/20 102/50/20 91/49/20
f 102/50/20 103/52/20 91/49/20
f 100/49/19 18/50/19 20/51/19
f 100/49/19 104/52/19 18/50/19
f 101/49/19 104/50/19 100/51/19
f 101/49/19 105/52/19 104/50/19
f 106/49/15 15/50/15 17/51/15
f 106/49/15 102/52/15 15/50/15
f 107/49/15 102/50/15 106/51/15
f 107/49/15 103/52/15 102/50/15
f 5/51/19 6/50/19 108/49/19
f 6/50/19 94/52/19 108/49/19
f 108/51/19 94/50/19 109/49/19
f 94/50/19 95/52/19 109/49/19
f 3/51/25 5/50/25 110/49/25
f 5/50/26 108/52/26 110/49/26
f 110/51/26 108/50/26 111/49/26
f 108/50/26 109/52/26 111/49/26
f 112/3/19 36/53/19 34/54/19
f 112/3/19 113/4/19 36/53/19
f 114/3/19 113/53/19 112/54/19
f 114/3/19 115/4/19 113/53/19
f 116/3/19 37/53/19 35/54/19
f 116/3/19 117/4/19 37/53/19
f 118/3/19 117/53/19 116/54/19
f 118/3/19 119/4/19 117/53/19
f 120/3/16 27/53/16 29/54/16
f 120/3/16 121/4/16 27/53/16
f 122/3/5 121/53/5 120/54/5
f 122/3/5 123/4/5 121/53/5
f 124/3/5 125/53/5 126/54/5
f 124/3/5 127/4/5 125/53/5
f 126/3/16 26/53/16 28/54/16
f 126/3/16 125/4/16 26/53/16
f 45/31/27 128/30/27 54/29/27
f 45/31/28 71/32/28 128/30/28
f 68/42/29 129/40/29 128/32/29
f 68/42/30 130/43/30 129/40/30
f 131/38/31 57/37/31 128/32/31
f 131/38/32 132/39/32 57/37/32
f 128/32/1 129/40/1 131/38/1
f 129/40/1 133/41/1 131/38/1
f 42/33/33 70/34/33 45/29/33
f 49/36/1 69/35/1 42/33/1
f 45/31/1 54/29/1 53/48/1
f 134/51/19 135/50/19 136/49/19
f 135/50/19 137/52/19 136/49/19
f 9/51/19 8/50/19 134/49/19
f 8/50/19 135/52/19 134/49/19
f 27/54/34 26/53/34 121/3/34
f 26/53/34 125/4/34 121/3/34
f 121/54/19 125/53/19 123/3/19
f 125/53/19 127/4/19 123/3/19
f 125/5/35 104/6/35 127/55/35
f 104/6/35 105/56/35 127/55/35
f 26/5/36 18/6/36 125/55/36
f 18/6/37 104/56/37 125/55/37
f 8/5/37 27/6/37 135/55/37
f 27/6/36 121/56/36 135/55/36
f 135/5/38 121/6/38 137/55/38
f 121/6/38 123/56/38 137/55/38
f 138/51/20 134/50/20 139/49/20
f 134/50/20 136/52/20 139/49/20
f 14/51/23 9/50/23 138/49/23
f 9/50/23 134/52/23 138/49/23
f 37/5/39 14/6/39 117/55/39
f 14/6/40 138/56/40 117/55/40
f 36/54/39 37/53/39 113/3/39
f 37/53/39 117/4/39 113/3/39
f 1/5/23 36/6/23 98/55/23
f 36/6/41 113/56/41 98/55/41
f 98/5/42 113/6/42 99/55/42
f 113/6/42 115/56/42 99/55/42
f 113/54/20 117/53/20 115/3/20
f 117/53/20 119/4/20 115/3/20
f 117/5/43 138/6/43 119/55/43
f 138/6/43 139/56/43 119/55/43
f 126/55/44 17/6/44 28/5/44
f 126/55/45 106/56/45 17/6/45
f 124/55/46 106/6/46 126/5/46
f 124/55/46 107/56/46 106/6/46
f 120/3/47 28/53/47 29/54/47
f 120/3/47 126/4/47 28/53/47
f 122/3/15 126/53/15 120/54/15
f 122/3/15 124/4/15 126/53/15
f 140/55/45 29/6/45 10/5/45
f 140/55/44 120/56/44 29/6/44
f 141/55/48 120/6/48 140/5/48
f 141/55/48 122/56/48 120/6/48
f 142/49/15 10/50/15 12/51/15
f 142/49/15 140/52/15 10/50/15
f 40/49/15 140/50/15 142/51/15
f 40/49/15 141/52/15 140/50/15
f 143/49/25 12/50/25 13/51/25
f 143/49/25 142/52/25 12/50/25
f 144/49/5 142/50/5 143/51/5
f 144/49/49 40/52/49 142/50/49
f 110/55/25 34/6/25 3/5/25
f 110/55/50 112/56/50 34/6/50
f 111/55/51 112/6/51 110/5/51
f 111/55/51 114/56/51 112/6/51
f 112/3/52 35/53/52 34/54/52
f 112/3/52 116/4/52 35/53/52
f 114/3/5 116/53/5 112/54/5
f 114/3/5 118/4/5 116/53/5
f 116/55/52 13/6/52 35/5/52
f 116/55/53 143/56/53 13/6/53
f 118/55/54 143/6/54 116/5/54
f 118/55/54 144/56/54 143/6/54
